<mxfile host="Electron" modified="2023-09-20T21:51:44.188Z" agent="Mozilla/5.0 (Windows NT 10.0; Win64; x64) AppleWebKit/537.36 (KHTML, like Gecko) draw.io/21.7.5 Chrome/114.0.5735.289 Electron/25.8.1 Safari/537.36" etag="TbUDHR2WqgVObrSjMixp" version="21.7.5" type="device">
  <diagram name="Page-1" id="2YBvvXClWsGukQMizWep">
    <mxGraphModel dx="1591" dy="2049" grid="1" gridSize="10" guides="1" tooltips="1" connect="1" arrows="1" fold="1" page="1" pageScale="1" pageWidth="850" pageHeight="1100" math="0" shadow="0">
      <root>
        <mxCell id="0" />
        <mxCell id="1" parent="0" />
        <mxCell id="QOd5lDTDU85s1vdmRcAn-2" value="&lt;i&gt;this&lt;/i&gt; : &lt;b&gt;Tamagotchi&lt;/b&gt;" style="shape=umlLifeline;perimeter=lifelinePerimeter;whiteSpace=wrap;html=1;container=0;dropTarget=0;collapsible=0;recursiveResize=0;outlineConnect=0;portConstraint=eastwest;newEdgeStyle={&quot;edgeStyle&quot;:&quot;elbowEdgeStyle&quot;,&quot;elbow&quot;:&quot;vertical&quot;,&quot;curved&quot;:0,&quot;rounded&quot;:0};" vertex="1" parent="1">
          <mxGeometry x="172.26" y="-440" width="136" height="270" as="geometry" />
        </mxCell>
        <mxCell id="QOd5lDTDU85s1vdmRcAn-3" value="" style="html=1;points=[];perimeter=orthogonalPerimeter;outlineConnect=0;targetShapes=umlLifeline;portConstraint=eastwest;newEdgeStyle={&quot;edgeStyle&quot;:&quot;elbowEdgeStyle&quot;,&quot;elbow&quot;:&quot;vertical&quot;,&quot;curved&quot;:0,&quot;rounded&quot;:0};" vertex="1" parent="QOd5lDTDU85s1vdmRcAn-2">
          <mxGeometry x="63" y="70" width="10" height="40" as="geometry" />
        </mxCell>
        <mxCell id="QOd5lDTDU85s1vdmRcAn-5" value="&lt;i&gt;estado&lt;/i&gt;&amp;nbsp;:&amp;nbsp;&lt;b&gt;EstadoHambriento&lt;/b&gt;" style="shape=umlLifeline;perimeter=lifelinePerimeter;whiteSpace=wrap;html=1;container=0;dropTarget=0;collapsible=0;recursiveResize=0;outlineConnect=0;portConstraint=eastwest;newEdgeStyle={&quot;edgeStyle&quot;:&quot;elbowEdgeStyle&quot;,&quot;elbow&quot;:&quot;vertical&quot;,&quot;curved&quot;:0,&quot;rounded&quot;:0};" vertex="1" parent="1">
          <mxGeometry x="542.26" y="-440" width="170" height="270" as="geometry" />
        </mxCell>
        <mxCell id="QOd5lDTDU85s1vdmRcAn-6" value="" style="html=1;points=[];perimeter=orthogonalPerimeter;outlineConnect=0;targetShapes=umlLifeline;portConstraint=eastwest;newEdgeStyle={&quot;edgeStyle&quot;:&quot;elbowEdgeStyle&quot;,&quot;elbow&quot;:&quot;vertical&quot;,&quot;curved&quot;:0,&quot;rounded&quot;:0};" vertex="1" parent="QOd5lDTDU85s1vdmRcAn-5">
          <mxGeometry x="80" y="140" width="10" height="50" as="geometry" />
        </mxCell>
        <mxCell id="QOd5lDTDU85s1vdmRcAn-7" value="&lt;b&gt;Estado&lt;/b&gt;" style="shape=umlLifeline;perimeter=lifelinePerimeter;whiteSpace=wrap;html=1;container=0;dropTarget=0;collapsible=0;recursiveResize=0;outlineConnect=0;portConstraint=eastwest;newEdgeStyle={&quot;edgeStyle&quot;:&quot;elbowEdgeStyle&quot;,&quot;elbow&quot;:&quot;vertical&quot;,&quot;curved&quot;:0,&quot;rounded&quot;:0};" vertex="1" parent="1">
          <mxGeometry x="372.26" y="-440" width="120" height="270" as="geometry" />
        </mxCell>
        <mxCell id="QOd5lDTDU85s1vdmRcAn-8" value="" style="html=1;points=[];perimeter=orthogonalPerimeter;outlineConnect=0;targetShapes=umlLifeline;portConstraint=eastwest;newEdgeStyle={&quot;edgeStyle&quot;:&quot;elbowEdgeStyle&quot;,&quot;elbow&quot;:&quot;vertical&quot;,&quot;curved&quot;:0,&quot;rounded&quot;:0};" vertex="1" parent="QOd5lDTDU85s1vdmRcAn-7">
          <mxGeometry x="55" y="100" width="10" height="60" as="geometry" />
        </mxCell>
        <mxCell id="QOd5lDTDU85s1vdmRcAn-10" value="2:&lt;br&gt;&amp;nbsp;+ darDeComer()" style="html=1;verticalAlign=bottom;endArrow=block;edgeStyle=elbowEdgeStyle;elbow=horizontal;curved=0;rounded=0;entryX=0.494;entryY=0.389;entryDx=0;entryDy=0;entryPerimeter=0;" edge="1" parent="1">
          <mxGeometry x="0.0594" relative="1" as="geometry">
            <mxPoint x="245.26" y="-335" as="sourcePoint" />
            <Array as="points" />
            <mxPoint x="424.53999999999996" y="-334.97" as="targetPoint" />
            <mxPoint as="offset" />
          </mxGeometry>
        </mxCell>
        <mxCell id="QOd5lDTDU85s1vdmRcAn-19" value="3:&lt;br&gt;+darDeComer()" style="html=1;verticalAlign=bottom;endArrow=block;edgeStyle=elbowEdgeStyle;elbow=vertical;curved=0;rounded=0;" edge="1" parent="1" target="QOd5lDTDU85s1vdmRcAn-5">
          <mxGeometry x="-0.0025" width="80" relative="1" as="geometry">
            <mxPoint x="437.160344827586" y="-289.99655172413793" as="sourcePoint" />
            <mxPoint x="597.26" y="-290" as="targetPoint" />
            <mxPoint as="offset" />
          </mxGeometry>
        </mxCell>
        <mxCell id="QOd5lDTDU85s1vdmRcAn-20" value="1:&lt;br&gt;+darDeComer()" style="html=1;verticalAlign=bottom;startArrow=oval;startFill=1;endArrow=block;startSize=8;edgeStyle=elbowEdgeStyle;elbow=vertical;curved=0;rounded=0;" edge="1" parent="1">
          <mxGeometry width="60" relative="1" as="geometry">
            <mxPoint x="102.26" y="-359.7241379310344" as="sourcePoint" />
            <mxPoint x="232.26" y="-359.69" as="targetPoint" />
          </mxGeometry>
        </mxCell>
        <mxCell id="QOd5lDTDU85s1vdmRcAn-21" value="" style="html=1;verticalAlign=bottom;endArrow=open;dashed=1;endSize=8;edgeStyle=elbowEdgeStyle;elbow=vertical;curved=0;rounded=0;" edge="1" parent="1">
          <mxGeometry x="0.5" relative="1" as="geometry">
            <mxPoint x="695" y="150.27999999999997" as="sourcePoint" />
            <mxPoint x="695" y="150.62068965517255" as="targetPoint" />
            <mxPoint as="offset" />
          </mxGeometry>
        </mxCell>
        <mxCell id="QOd5lDTDU85s1vdmRcAn-23" value="" style="html=1;verticalAlign=bottom;endArrow=open;dashed=1;endSize=8;edgeStyle=elbowEdgeStyle;elbow=vertical;curved=0;rounded=0;" edge="1" parent="1" source="QOd5lDTDU85s1vdmRcAn-6">
          <mxGeometry x="-0.0028" relative="1" as="geometry">
            <mxPoint x="594.76" y="-259.82000000000005" as="sourcePoint" />
            <mxPoint x="252.26" y="-260" as="targetPoint" />
            <mxPoint as="offset" />
            <Array as="points" />
          </mxGeometry>
        </mxCell>
        <mxCell id="QOd5lDTDU85s1vdmRcAn-4" value="" style="html=1;points=[];perimeter=orthogonalPerimeter;outlineConnect=0;targetShapes=umlLifeline;portConstraint=eastwest;newEdgeStyle={&quot;edgeStyle&quot;:&quot;elbowEdgeStyle&quot;,&quot;elbow&quot;:&quot;vertical&quot;,&quot;curved&quot;:0,&quot;rounded&quot;:0};" vertex="1" parent="1">
          <mxGeometry x="235.26" y="-270" width="10" height="50" as="geometry" />
        </mxCell>
        <mxCell id="QOd5lDTDU85s1vdmRcAn-24" value="" style="html=1;verticalAlign=bottom;endArrow=open;dashed=1;endSize=8;edgeStyle=elbowEdgeStyle;elbow=horizontal;curved=0;rounded=0;" edge="1" parent="1">
          <mxGeometry x="-0.0028" relative="1" as="geometry">
            <mxPoint x="235.26" y="-229.92999999999995" as="sourcePoint" />
            <mxPoint x="102.26" y="-230" as="targetPoint" />
            <mxPoint as="offset" />
            <Array as="points" />
          </mxGeometry>
        </mxCell>
        <mxCell id="QOd5lDTDU85s1vdmRcAn-25" value="&lt;i&gt;devuelve el mensaje&lt;br&gt;por pantalla&lt;/i&gt;" style="html=1;verticalAlign=bottom;endArrow=open;dashed=1;endSize=8;edgeStyle=elbowEdgeStyle;elbow=vertical;curved=0;rounded=0;" edge="1" parent="1">
          <mxGeometry x="-1" y="85" relative="1" as="geometry">
            <mxPoint x="255.26" y="-250" as="sourcePoint" />
            <mxPoint x="258.2600000000001" y="-250" as="targetPoint" />
            <mxPoint x="-83" y="105" as="offset" />
            <Array as="points" />
          </mxGeometry>
        </mxCell>
        <mxCell id="QOd5lDTDU85s1vdmRcAn-27" value="&lt;h1&gt;&lt;b&gt;ENUNCIADO:&amp;nbsp;&lt;/b&gt;&lt;/h1&gt;" style="html=1;verticalAlign=bottom;endArrow=open;dashed=1;endSize=8;edgeStyle=elbowEdgeStyle;elbow=vertical;curved=0;rounded=0;" edge="1" parent="1">
          <mxGeometry x="-1" y="290" relative="1" as="geometry">
            <mxPoint x="255.26" y="-250" as="sourcePoint" />
            <mxPoint x="258.2600000000001" y="-250" as="targetPoint" />
            <mxPoint x="-163" y="50" as="offset" />
            <Array as="points" />
          </mxGeometry>
        </mxCell>
        <mxCell id="QOd5lDTDU85s1vdmRcAn-29" value="mensaje = Feliz" style="text;html=1;strokeColor=none;fillColor=none;align=center;verticalAlign=middle;whiteSpace=wrap;rounded=0;" vertex="1" parent="1">
          <mxGeometry x="270" y="-290" width="130" height="30" as="geometry" />
        </mxCell>
        <mxCell id="QOd5lDTDU85s1vdmRcAn-30" value="&lt;h3 style=&quot;&quot;&gt;Realizar un diagrama de secuencias para cuando el Tamagotchi está Hambriento y se le Da de&lt;br&gt;comer&amp;nbsp;&lt;/h3&gt;" style="text;html=1;strokeColor=none;fillColor=none;align=center;verticalAlign=middle;whiteSpace=wrap;rounded=0;" vertex="1" parent="1">
          <mxGeometry x="162.26" y="-560" width="670" height="80" as="geometry" />
        </mxCell>
        <mxCell id="QOd5lDTDU85s1vdmRcAn-31" value="&lt;h3 style=&quot;&quot;&gt;Realizar un diagrama de secuencias para cuando el Tamagotchi está Sediento y se le Pega&lt;br&gt;&lt;/h3&gt;" style="text;html=1;strokeColor=none;fillColor=none;align=center;verticalAlign=middle;whiteSpace=wrap;rounded=0;" vertex="1" parent="1">
          <mxGeometry x="165" y="20" width="670" height="80" as="geometry" />
        </mxCell>
        <mxCell id="QOd5lDTDU85s1vdmRcAn-32" value="&lt;h1 style=&quot;font-size: 21px;&quot;&gt;&lt;span style=&quot;background-color: initial; font-size: 21px;&quot;&gt;ENUNCIADO:&amp;nbsp;&lt;/span&gt;&lt;br style=&quot;font-size: 21px;&quot;&gt;&lt;/h1&gt;" style="text;html=1;strokeColor=none;fillColor=none;align=center;verticalAlign=middle;whiteSpace=wrap;rounded=0;fontSize=21;fontStyle=1" vertex="1" parent="1">
          <mxGeometry x="15" y="20" width="160" height="70" as="geometry" />
        </mxCell>
        <mxCell id="QOd5lDTDU85s1vdmRcAn-49" value="&lt;i&gt;this&lt;/i&gt; : &lt;b&gt;Tamagotchi&lt;/b&gt;" style="shape=umlLifeline;perimeter=lifelinePerimeter;whiteSpace=wrap;html=1;container=0;dropTarget=0;collapsible=0;recursiveResize=0;outlineConnect=0;portConstraint=eastwest;newEdgeStyle={&quot;edgeStyle&quot;:&quot;elbowEdgeStyle&quot;,&quot;elbow&quot;:&quot;vertical&quot;,&quot;curved&quot;:0,&quot;rounded&quot;:0};" vertex="1" parent="1">
          <mxGeometry x="175" y="120" width="136" height="270" as="geometry" />
        </mxCell>
        <mxCell id="QOd5lDTDU85s1vdmRcAn-50" value="" style="html=1;points=[];perimeter=orthogonalPerimeter;outlineConnect=0;targetShapes=umlLifeline;portConstraint=eastwest;newEdgeStyle={&quot;edgeStyle&quot;:&quot;elbowEdgeStyle&quot;,&quot;elbow&quot;:&quot;vertical&quot;,&quot;curved&quot;:0,&quot;rounded&quot;:0};" vertex="1" parent="QOd5lDTDU85s1vdmRcAn-49">
          <mxGeometry x="63" y="70" width="10" height="40" as="geometry" />
        </mxCell>
        <mxCell id="QOd5lDTDU85s1vdmRcAn-51" value="&lt;i&gt;estado&lt;/i&gt;&amp;nbsp;: &lt;b&gt;EstadoSediento&lt;/b&gt;" style="shape=umlLifeline;perimeter=lifelinePerimeter;whiteSpace=wrap;html=1;container=0;dropTarget=0;collapsible=0;recursiveResize=0;outlineConnect=0;portConstraint=eastwest;newEdgeStyle={&quot;edgeStyle&quot;:&quot;elbowEdgeStyle&quot;,&quot;elbow&quot;:&quot;vertical&quot;,&quot;curved&quot;:0,&quot;rounded&quot;:0};" vertex="1" parent="1">
          <mxGeometry x="545" y="120" width="170" height="270" as="geometry" />
        </mxCell>
        <mxCell id="QOd5lDTDU85s1vdmRcAn-52" value="" style="html=1;points=[];perimeter=orthogonalPerimeter;outlineConnect=0;targetShapes=umlLifeline;portConstraint=eastwest;newEdgeStyle={&quot;edgeStyle&quot;:&quot;elbowEdgeStyle&quot;,&quot;elbow&quot;:&quot;vertical&quot;,&quot;curved&quot;:0,&quot;rounded&quot;:0};" vertex="1" parent="QOd5lDTDU85s1vdmRcAn-51">
          <mxGeometry x="80" y="140" width="10" height="50" as="geometry" />
        </mxCell>
        <mxCell id="QOd5lDTDU85s1vdmRcAn-53" value="&lt;b&gt;Estado&lt;/b&gt;" style="shape=umlLifeline;perimeter=lifelinePerimeter;whiteSpace=wrap;html=1;container=0;dropTarget=0;collapsible=0;recursiveResize=0;outlineConnect=0;portConstraint=eastwest;newEdgeStyle={&quot;edgeStyle&quot;:&quot;elbowEdgeStyle&quot;,&quot;elbow&quot;:&quot;vertical&quot;,&quot;curved&quot;:0,&quot;rounded&quot;:0};" vertex="1" parent="1">
          <mxGeometry x="375" y="120" width="120" height="270" as="geometry" />
        </mxCell>
        <mxCell id="QOd5lDTDU85s1vdmRcAn-54" value="" style="html=1;points=[];perimeter=orthogonalPerimeter;outlineConnect=0;targetShapes=umlLifeline;portConstraint=eastwest;newEdgeStyle={&quot;edgeStyle&quot;:&quot;elbowEdgeStyle&quot;,&quot;elbow&quot;:&quot;vertical&quot;,&quot;curved&quot;:0,&quot;rounded&quot;:0};" vertex="1" parent="QOd5lDTDU85s1vdmRcAn-53">
          <mxGeometry x="55" y="100" width="10" height="60" as="geometry" />
        </mxCell>
        <mxCell id="QOd5lDTDU85s1vdmRcAn-55" value="2:&lt;br&gt;&amp;nbsp;+ pegar()" style="html=1;verticalAlign=bottom;endArrow=block;edgeStyle=elbowEdgeStyle;elbow=horizontal;curved=0;rounded=0;entryX=0.494;entryY=0.389;entryDx=0;entryDy=0;entryPerimeter=0;" edge="1" parent="1">
          <mxGeometry x="0.0594" relative="1" as="geometry">
            <mxPoint x="248" y="225" as="sourcePoint" />
            <Array as="points" />
            <mxPoint x="427.28" y="225.02999999999997" as="targetPoint" />
            <mxPoint as="offset" />
          </mxGeometry>
        </mxCell>
        <mxCell id="QOd5lDTDU85s1vdmRcAn-57" value="3:&lt;br&gt;+pegar()" style="html=1;verticalAlign=bottom;endArrow=block;edgeStyle=elbowEdgeStyle;elbow=vertical;curved=0;rounded=0;" edge="1" parent="1" target="QOd5lDTDU85s1vdmRcAn-51">
          <mxGeometry x="0.0004" width="80" relative="1" as="geometry">
            <mxPoint x="439.900344827586" y="270.00344827586207" as="sourcePoint" />
            <mxPoint x="600" y="270" as="targetPoint" />
            <mxPoint as="offset" />
          </mxGeometry>
        </mxCell>
        <mxCell id="QOd5lDTDU85s1vdmRcAn-58" value="1:&lt;br&gt;+pegar()" style="html=1;verticalAlign=bottom;startArrow=oval;startFill=1;endArrow=block;startSize=8;edgeStyle=elbowEdgeStyle;elbow=vertical;curved=0;rounded=0;" edge="1" parent="1">
          <mxGeometry width="60" relative="1" as="geometry">
            <mxPoint x="105" y="200.27586206896558" as="sourcePoint" />
            <mxPoint x="235" y="200.30999999999995" as="targetPoint" />
          </mxGeometry>
        </mxCell>
        <mxCell id="QOd5lDTDU85s1vdmRcAn-59" value="" style="html=1;verticalAlign=bottom;endArrow=open;dashed=1;endSize=8;edgeStyle=elbowEdgeStyle;elbow=vertical;curved=0;rounded=0;" edge="1" parent="1" source="QOd5lDTDU85s1vdmRcAn-52">
          <mxGeometry x="-0.0028" relative="1" as="geometry">
            <mxPoint x="597.5" y="300.17999999999995" as="sourcePoint" />
            <mxPoint x="255" y="300" as="targetPoint" />
            <mxPoint as="offset" />
            <Array as="points" />
          </mxGeometry>
        </mxCell>
        <mxCell id="QOd5lDTDU85s1vdmRcAn-60" value="" style="html=1;points=[];perimeter=orthogonalPerimeter;outlineConnect=0;targetShapes=umlLifeline;portConstraint=eastwest;newEdgeStyle={&quot;edgeStyle&quot;:&quot;elbowEdgeStyle&quot;,&quot;elbow&quot;:&quot;vertical&quot;,&quot;curved&quot;:0,&quot;rounded&quot;:0};" vertex="1" parent="1">
          <mxGeometry x="238" y="290" width="10" height="50" as="geometry" />
        </mxCell>
        <mxCell id="QOd5lDTDU85s1vdmRcAn-61" value="" style="html=1;verticalAlign=bottom;endArrow=open;dashed=1;endSize=8;edgeStyle=elbowEdgeStyle;elbow=horizontal;curved=0;rounded=0;" edge="1" parent="1">
          <mxGeometry x="-0.0028" relative="1" as="geometry">
            <mxPoint x="238" y="330.07000000000005" as="sourcePoint" />
            <mxPoint x="105" y="330" as="targetPoint" />
            <mxPoint as="offset" />
            <Array as="points" />
          </mxGeometry>
        </mxCell>
        <mxCell id="QOd5lDTDU85s1vdmRcAn-66" value="&lt;i style=&quot;font-size: 11px;&quot;&gt;devuelve el mensaje&lt;br&gt;por pantalla&lt;/i&gt;" style="text;html=1;strokeColor=none;fillColor=none;align=center;verticalAlign=middle;whiteSpace=wrap;rounded=0;" vertex="1" parent="1">
          <mxGeometry x="118" y="300" width="110" height="30" as="geometry" />
        </mxCell>
        <mxCell id="QOd5lDTDU85s1vdmRcAn-67" value="" style="shape=image;verticalLabelPosition=bottom;labelBackgroundColor=default;verticalAlign=top;aspect=fixed;imageAspect=0;image=data:image/png,iVBORw0KGgoAAAANSUhEUgAAA5kAAAINCAYAAAC01rvHAAAgAElEQVR4nOzdf2gc+X3/8dcmR9YQunv3TeQiyerJd6dWsUqPXFoXKVxlj/SHm/7hAwdTfB0bTgr0agz5UXq5K9okY2qfE1oMxqQp44C1rSEGw9lQx5CRTk4qCQzqcaXjqHX3zodWEngT7rRXOO2Vdr5/KPPJzGr10yOtLD0f8MbanZ2Zz6xnf7x3Pp/3JyUpEAAAAAAACfhEvRsAAAAAANg+SDIBAAAAAIkhyQQAAAAAJIYkEwAAAACQGJJMAAAAAEBiSDIBAAAAAIkhyQQAAAAAJIYkEwAAAACQGJJMAAAAAEBiHlvvikEQJNkOYMdKpVL1bgIAAACQmHUnmRJfjoGHxY81AAAA2G7oLgsAAAAASAxJJgAAAAAgMSSZAAAAAIDEkGQCAAAAABJDkgkAAAAASAxJJgAAAAAgMSSZG8CyLBWLRQVBsCg8z6t38xLhed6Sx2LbtkqlkhzH2eRWAQAAAKi3lKR1TdQXBAHzZK6C4zh68cUX9ZWvfEXDw8P1bk5iwgSzt7e3zi15tPE6AgAAwHbDlUzEOI6jiYmJejcDAAAAwCOKJLMOHMdRpVJZ1IXWcRwVCgUVCoXYMt/3a3a39TzP3F+pVGLdU6PLisWifN83y6u78xaLRVmWJdd1NTAwoOeeey62L9d1a+7niSeeULlcNstc15VEd1kAAABgJyPJrINcLqd0Oq1UKqXjx4+rvb1dtm1Lkvbs2aM333xTqVRKp0+f1vPPP6/x8XFz+9lnnzWP7e3tVSqVUiqVUj6f15EjRyQtJKvPPvusjh8/rlQqpVu3bumZZ54x+79w4YImJyfNunNzc7pw4YL6+/t16dIl3b17V6lUSr29vXIcR4cPHzbbSqfTyuVykqS2tjadPHlSqVRKly5d0qFDh2RZ1iY/mwAAAAC2EpLMOoheyRwcHFRDQ4Pa2tokSeVyWbdv35Yk3bt3T6VSKXZbknls9GplX1+fstmsLMtSV1eXHjx4oHw+L0m6cuWKisWipIWrjLt379bY2Jhpz7Vr17Rr166aCWL1tqKmpqbM/WEbm5ubH/4JAgAAAPDIIsncZLZt6+WXX9a5c+fMlcxyuWyWl8tlTU9Pr7gd13XV3t6unp4ecyVxs83Ozm76PgEAAABsbSSZmyy8Chlelezu7lYmk1nzdlpbWzU3N2cq1nZ2dppl9+/fV0tLi+lWe+DAATU0NEiS8vm8Hjx4oK6uLvP4I0eOaH5+vmb127GxMe3evdtsCwAAAACWQ5K5yXK5nN5++20NDg4qCAIdPHjQdGVdizNnziibzZrush988IEqlYokqb+/X3fu3DH7ePnll2NXS0+dOqX29nazbjab1alTpyQtdHttaWkxhX+q21tdYAgAAAAAqgXriSAI1rUesflhWVZQKBQCx3Hq3hYiHryONi8cxwkKhUJgWVbd20IQBEEQBLGdgyuZO8CxY8fU0NBguugCAAAAwEYhydyGbNuOzV/Z19enq1ev1qwQCzxKHMfRxMREvZsBAACAFazrEijd/Aji4WOnv44cxwkqlUoQBEFQqVRMl27btoNyuRyEisVicPPmzSDK87xAUuD7vrmvXC4Htm0H0kI38WKxaJYVCoVYd9novqPb20kB1Fu9XwMEQRDEhsX6VuTDgSAePnby68i27aBYLJqk0HGcoFQqBbZtB57n1Uz6XNcNfN9fcpvR9TzPiz3W9/2gWCwGlmUFtm0HpVJpUVLrum7dn5fNjJ18/hH1D84/giCI7RsP1V02+FV3TIIg1h7f/va3H+bl98jxPM8cu+u66u7uVnNzs6lcPDAwoEwmo7a2No2Njen5559XuVxecfoc3/fNdnt6etTY2CjLstTe3q7x8XHzuGvXrpkKzN3d3apUKhoZGZG0MLXPnTt31NraulGHDwAAsGM89jArp1KppNoB7Ejf+ta36t2ETdPb2xu77bqupqendfz48ZpztOZyOdm2rYsXL+rs2bM6fvz4osd4nifp1+9FnuepsbFxA1r/aPjWt76ljz76SN/97nfr3RQAALCDUfgHQF3cvn1bmUxGx44dW/Ix+XxeJ0+elCQ1NzcvWt7Y2KjZ2VlJMlcvJWl4eFhzc3Pq7Ow0j+3q6lI6nTb7TqfTOnDggKSFYln79+/X/fv3kzi0uvnRj36kL37xi/qXf/kXffGLX6x3cwAAwA62rn62QRDUva8vQTzqsdNfR9XFd8Ixk57nBVHhOMtoQSDP82K3K5VKMDo6asZh7uTCPy+99FJQKpWCc+fOBalUivOP2JLB+UcQBLF9I/WrP9YsCAK6ywIPidcRNspnP/tZnTt3Tl/84hf1yiuv6Pr164sew/mHeuL8A4DtiyQTqCNeR9hohw8f1rlz5zQ6OqpXXnlFv/jFL8wyzj/UE+cfAGxfjMkEgG3s+vXr+tznPqdf/vKX+vnPf66XXnqp3k3aMhzHUaFQkGVZ9W4KAADbCkkmAGxzQRDor/7qr/TCCy/opZde0vXr1/W7v/u79W4WAADYph5qChMAD2+h9gWwuX7v936v3k14ZE1MTOif//mflcvlEtum4zj6kz/5E33hC19IbJsAANTTuioGURWOIB4+eB0Rmxlf/epXg1KpFPzgBz8InnzyyR1z/kWrFVcqlcBxnEBaqDAcVh2uVWW4usrxzZs3YxWLy+VyYNt24Pt+cOPGjaBcLpv7ltqnpMB13diyf/3Xf61ZTXm7x045/wiCIHZorG9FPhwI4uGD1xGxGfFnf/Znwd27d4Nr164FX/jCF8z92+38s207KJVKgeM4ge/7NZM113XNNDfhNDau65r1y+Vy4LpuYNt2UCwWA9u2Y+tblhUUCoVY0uj7vkkua7Wrep+lUmnRY6OPid6OHlO9n9+kY7udfwRBEEQs1rciHw4E8fDB64jYyDh06FDw05/+NPjpT38aHDp0aNHy7XT+LZdgVl+RDOdjrZXweZ5n1vV9f9GVxaWSzOqEdql9ep4XSybDqE4yw/uKxWLwta99bVsmmtvp/CMIgiDiQeEfANiiXNeV7/trXu8LX/iCrl27pr/7u7/TP/zDP+iP/uiPdOvWrQ1o4dbR3d2tTCajpqYmtbS0mPtd11V7e7t6enqUSqV06dKlVW+zo6PDTLERBIFc113ysffv309kn9UymYwef/xxpdNpdXV1rXs7AABsJpJMANiCPM9TX1/fmtZ58skn9YMf/EC3bt3Sz372M+3bt0//+I//uEEt3Fr6+/vV39+vw4cP6/z582psbJTneWptbdXc3JyGh4clSZ2dnbH1MpmMuru7JUm2bWv//v2xhFGSent7NTQ0pNbW1lW1Zbl9jo2Naffu3bJte9ltuK6rzs5OnTx5Un/xF3+h8+fPq7e3d1X7BwBgK1jXJVC6uRDEwwevI6JWhF0na3WhXC6+/e1vB3/zN38TfPrTn17V43fC+WdZVqxYz+joaFAoFEx32YmJCdMtNto1NhyfWV3kR/p1V9ho4Z9wXOdK+4yuHy0KFN0fhX8IgiCIRz1Sv/pjzYIgMN2IAKwPryMsJ7ya1dHRsarHf+pTn9LHH3+86u1z/qGeOP8AYPuiuywAbBNrSTABAAA2CkkmAAAAACAxJJkAAAAAgMSQZAIAAAAAEvPYw6y8UBgOwHp85zvfqXcTAAAAgMRRXRaoI15HqKedfP5ZlqXBwUE1Nzeb+4aGhjZkLkrf9zU+Pq7+/v7Et/0o28nnHwBsd3SXBQDsOGFyefz4caVSKaVSqQ1JMC3L0q5duzQzM5P4tgEA2KpIMgEAO05bW5sqlYqmp6dX9XjP8+S67pr309zcrHQ6rXv37q15XQAAHlUkmQCAHaepqUnz8/MaHh6O3e+6roIgMHHz5k0Vi0X19PSor69PxWJRlmXFHjc6Oirf92XbtqSFhDRc9ud//uexZDa6LNwWAADbDUlmHdi2rVKpJMdx6t2UJTmOo1KpZL40AcB20tnZqX379pmEz/M8WZalgwcP6vTp06YL7Ze+9CX98Ic/1C9+8QsdP35ce/bs0YEDB3T06FHzuMcff1zZbFbT09PyPE/79+/X8ePH1dPToyeffFLvvvuuhoeH5Xme2tvb1dPTo56eHknSa6+9VudnAgCAjRGsJ4KF0rKrCtd1g1rK5XJg2/a69r/Vwvf9wHXdmsscxwlKpZI5Vs/zAs/zAkmBZVlBsVjctOfFcZygUCgElmWt+NhoO4mNibW8jggi6dip51/4vlvrPdv3/SAIgtgy13UD3/djj4m+N4bvlbW2G342WJYVFAqFwHGcRevV+/moV+zU848gCGInxKZcyezv7ze/Ct+9e1eXLl1SKpVSJpNRPp/fjCbUVS6XU0NDg/L5vCzL0t69ezU2NhZ7TPicbKXnZWxsTHv37qU7F4BtJRwnWasYT0dHh06fPi3btuV5niSptbVVs7Ozkn5dyCd8D7csS+3t7bp//74pJnT79m1JC71Wdu/erZmZmUVjM6PrAQCw3WxIkuk4jgqFwrZITlzXNV80knDgwAFlMpmHKgLhOI4mJiYSa9NSRkZGJC20GQC2i7a2NpXLZfMeF/r6178uaeGHwZ/97GdqbGys+cNgOp1WU1OTJOnChQvKZDImsUyn02pra5NlWTp79qwqlYrZT7hMko4dOyZJunLlykYeKgAAdbOuS6DLdXNZrktmrW6lYfek6q6inucFExMTQblcDoIgCCqVSuC6bux2tOvRUtup7pI6MTER+L5v2uc4TlCpVMzysPuS53mxbqxhu6P7KRaLgWVZge/7wejoqNlOtG3R7rKu65p1om2r1W3Ltm1zrOG+bt68GWtT2NbVHnuhUIj931R3Za71f7NUN2Di4YPuYkQ9Y6eef9Xve+F75lLvo+H9YZfZ6GfDjRs3Yp8n4WMrlUpw48aNYGJiouZ+t9NwkfXGTj3/CIIgdkisb8XlPhzWmmRGIzpGxfO8RUln9e3oOJnltlM9niZM9GzbDkqlkkkIw8QubGP1mJml9hndZvXjqpPM6Pq1xmSG21lqvE71NtZ77NVjRR3HCcrl8qLEnSRz44IvWUQ9g/OPqGdw/hEEQWzfSLS7bFjSfWBgQE899ZSGhoZULpdXrFDq+76p8NfT06PGxkazbGpqyoxPvH///qLb2WzWdMuttZ1w3Mv4+LjZ5rVr11SpVCRJ3d3dse5M+Xxed+7cUWtr66J21tpW1OTkpCmHPzY2pl27dq26y3B0TOaePXs0PDyssbExPf/88+t+Dlc69q6uLj148MA8n7lcTlNTU6YbGAAAAACsVaJJZljg5/Tp03rnnXfU09OzYhGbcLxjmGANDQ3FlofFFlay0nY2w2oKOMzMzKw6+czlckqn0zp58qQuXry45JxqW+HYAQAAAEDaAvNkNjY2xqr2tbe3J7qd4eFhzc3NqbOz0zy2q6tL6XRa0kIVwHQ6bYrb2Lat/fv310wYh4eHNTk5GdvWemQyGVOFcDXy+bxOnjwpSTXXW++xj42Naffu3eYqqeM4amlpMRUXwyqKtSowAgAAAEAtG5Jk5nI5Pf3006br6HJef/117d+/X0EQ6Mc//rHee++9de1zue2cOnVK2WzWdCfdu3ev6TKaz+f1/e9/X6+88oqCINDg4KDu3Lmj/v5+STJdVoMgkOu6OnPmTGxbS11dXMrIyIjK5bKpMBjq6+sz2wy7x3qeZ+4bHBzU5OSk8vm8bt++rZaWFjOB+HqPPZfL6fr16xocHDTdnK9evapcLicpmUq4AAAAAHaWlBYGZ65ZEARKpVIJN2dzOI6jF198UV/5yldWlQgnzfM8NTY2qqOjY9P3vRZhN9ze3t46t2T7epRfR3j0LdRdATbfd77zHX3rW9/i/Q8AtrF1VQx6lKvC+b6/bHXWjY7qirZbMaorzxIbE4/y64h49IPzj6hncP4RBEFs39gRVzJd11VfX5+5/eGHH+rkyZPLFiQCNsOj9DrC9sP5h3ri/AOA7WtHJJnAVsXrCPXE+Yd64vwDgO2r7tVlAQAAAADbB0kmAAAAACAxJJkAAAAAgMSQZAIAAAAAEkOSCQAAAABIDEkmAAAAACAxJJkAAAAAgMSQZAIAAAAAEkOSCQAAAABIDEkmAAAAACAxJJkAAAAAgMSQZAIAAAAAEkOSCQAAAABIDEkmAAAAACAxJJkAAAAAgMSQZAIAAAAAEkOSuYVYlqVisSjXdWN/A8BGCYKAIDY9vv3tb9f71AcAbLBgPREEwbrWC8NxnKBQKASWZa15Xdu2g3K5HEQVi8U1bavWNjzPe6hjethwXTfwfT+R52g14XlebH9J/f8Qq4+HfR0RxMME5x9Rz+D8IwiC2L7xyF7JrFQqOn36tFKplFKplCYnJ/XGG2/Itu0V17VtWxcvXtSdO3fM+qlUSr29vZvQ8qV1dnZqfHzc3B4ZGZEkHThwYEP219vbq46Ojg3ZNgAAAICdaUOSTMdxVCgUZFnWRmy+pt7eXk1NTenEiRMrPvab3/ympqam6p5URtm2rd27d2tmZsbcNzw8rHfffVddXV2SFp7XiYmJejURAAAAAFa0aVcywzGG4XiMF198Mbbc8zyzrFKpyHEcSb9OWEdHRxUEgTzPW3If4+Pjam9vN8mt7/tmm77vm3Zks9nYFcNqruvGxo6E4yJt21axWNTExERsu9G2h/updcxh28Pt3Lhxw6zT1tYmSbp3716sLffv31djY6MkqaurS21tbYuu1nqeV3O/0bGdYRuKxaJ5fqLrrfT/AwAAAACrsWlJ5muvvaa5uTnTNXV+fl7pdNos7+3tNcvy+byOHDlilu3Zs0cfffTRmrq0ep6n2dlZs83wvubmZqXT6dgVwyjHcXT48GEdP35cqVRKp0+f1tGjR03Sm8lk9P777yuVSun48eNqaWmRJHN79+7d5rEXLlzQrVu3lEql1NPTo/b2dpOwZjIZPf3000qlUqbLarlc1vT09JLH1Nvbq0wmo3w+H7v/8uXLymazJvk8duyYJOnKlSu6cOGCJicnzfMwNzenCxcuLNr2Sv8/AAAAALAaiSaZ4RXAgYEBPfXUUxoaGlK5XNbZs2fV3t4eu3p47do1VSoVczt6NbCvr0/ZbNZccSuXy7p8+fKq2/H5z39e7e3t6unpMdvct2+fGhsbNT09rUqloqampprrdnV16cGDByaRy+VympqaMo+vVCoaGxuTJE1PT6tUKsVuh9u2bVstLS3q6+tTEAQaGhpSc3OzWltbzXauXbu26mNaTj6f19zcnOkq3NnZqcnJSTU3N2v37t2mfdLC875r165YV2bLslb8/wGAWjzPW7aHyUrrRnuNRHtkrMRxHFUqlZq9NDZb2KNlYmLC/Mi4nOreMut9/gAA2KoSTTL7+/vN1b933nlHPT09ymQy+slPfrLseq7rmqQwlUrp0qVLseUrXeELhcnVW2+9JUm6dOlSrLBPR0eHhoeHNTc3p87OznUdY6VSWdSldbnHRosTRa/EVm/n3r17SqfTam5uXle7rl27pr179+prX/uastnsmpJyAFivxsZG3b9/f93rDg0Nmd4e2Wx2VQmX67p65ZVXdO7cOfPeumfPHg0PD6+rHQ8jbG9vb6/eeustM4Z+KY7j6OjRo7HPhrXUBwgTWgAAtrJN6S5bK7Hr6uoy3TFbW1s1NzdnviCsJwH0fV8tLS26fPmyhoeHNTk5qUOHDtX8ZfvatWt65plnan5Qj42Naffu3abrqeM4amlpWbJ77VLy+bwePHgQ6/a7knQ6bcZmhlpbWzU7O7viumEl2i9/+cuam5tTPp83bYh+6Tly5Ijm5+djX8ZW+v8BsPPYti3f95e9OmhZlnbt2rXm98foumFPi+HhYd26dSs2rn6pdh0+fFjnzp1TLpdb836TZNu22tvb9frrr0uSZmZm9MQTTyy7TlNTk6ampmq23fO8FedG7ujo2FJF6wAAqGVDksxcLqenn346lsicOnVK2WzWdA/au3ev6Y555syZ2LIPPvhgxa6a6XRaAwMDZp1sNqsXXnjBdHPt7e3V3NychoaGFhXwyeVyOnfunJ5//vlFxYZyuZyuX7+uwcFB0/X36tWr6/oyU33M0YJG1cKEMNqNN+zGGl4l8DxP5XK55jQtYSXa3//93491wz116pTa29tjz9OpU6dWbGv0/wcAQtGunt/73veUTqdNr4zostHRUfm+L9u2TcIaFnBzXdeMj4/26JiZmYn16Ih2pw1/FDxx4oQePHiw5HtydJ1oF1rXdTU6OmoKnPm+H+tyG/3RMXoc0eJovu+bgm2e5+nEiROanJyMjZN//PHHZVmWXNet+X49MzOjlpaW2GdBWHitp6dHfX19KhaL+sY3vrFof2HRuFrPafQzrvp5uHHjxoo/GAAAkLR1TbDJJMrJh+u6QbFYDCzLCiQFjuMEhULB3Ca2X/A6IuoZtc4/13WDapVKJXAcJ3Bd1/wtKfB9P/B9P5AW3q/K5XJsWfh+Fm7T87zYfqLvd+E2SqVSYNt24HleUC6XA9u2Y/f7vh/bTjQ8zzPbtCwrKBaL5rG+75u227YdlMvlWPuif0cfVyqVAsdxAsdxgkqlYo7XsqygUCiY4w3bH75nR9uy1HMcbqv62MPb0f1VP2fVz6nneeax0ecufB6i29kqwfsfQRDEto71rciHQ/IRfhlwXTf2d73bRWxc8Doi6hnLnX9hQhdNkqoTPM/zYkncUsuiCVB0+VL3Vb//hQnbN77xjSXfF2slfWEbqrdXndC5rmvaEj0O13VNsladFNu2HRSLRbON6u2sFNVJcPW6tZLw5Z7TsN21Pjt839+SnyW8/xEEQWzf2LQpTLCy4eFh7dmzR/39/bG/AaDeqsdQRrvzr7Ssunq1tFD0J3qfbdvav3+/xsfH1dzcrEwmY6pzNzY2as+ePfrbv/1bzc3NmSrdUdXdb6NtOHDggNLptG7fvi1pYVxktIp4Z2enZmdnzTzKYWXyQ4cOmWEYYWG5cBhIW1ubKpVKrCjdasfQSzK1A8J5kKvXrd7fcs9p9PkPuxqHx2rbtnbv3r2ucbMAAKwXSSYAYJF8Pm8qcofS6bQZN37hwgVlMhmTzCy1rDrpkRYXDLJtWxcvXtTU1JT5Ya1cLpv5isO5hCVpfHxc+/fvrzk2PVo8LTpfcFNTUywhjCZ01QlytCp4WLG2+jG12LatZ599VmNjY0uOx4wKE8Uwud27d28sSa/eX/R5rJ7vuTrBDp8Hy7J09uzZRWNfAQDYDOu6BEo3F4J4+OB1RNQz1nr+eZ5nxmneuHEj1p12qWW1xpaHYyKjqrtzRseGRseBVu8rum50nbCba/j4sJtpdbfa6m6v4VjI6LZrdY2tPq5od9doN9ulnr/qMZm+75v7VtrfcvuObqtSqQSjo6Nbcjzmes4/giAI4pGK9a3Ih0OyUV1gIjpeiNi+weuIqGdw/q0/LMsyCWGtpHCrxHKFkuodnH8EQRDbOta34sN+ODxM5dRav4IvVcWvOqp/SV7r+hsV0V/aa91OOpb74rGW4hXEwwVfsoh6Buffw4XnecHIyEhQLpe3ZGGd6oq/Wy04/wiCILZvPLJjMqPjZlKplCYnJ/XGG28sOwZGWpg/M5VKqaenR++8886isTf1UD0eR5LGxsa0d+/eDZvXjAm9AeDh9Pb26sCBA8pkMlumSFt0js+HmecZAICHsSFJpuM4KhQKmzrxc29vr6ampnTixIlN22dSwi8p0cIMIyMjZpm08MUhOlk4AADV+vv7zY+vqVRqyyS/AICdZdOuZFqWpWKxaH5hffHFF2PLPc8zyyqVihzHkfTrhHV0dFRBECybaI2Pj6u9vd0kt77vm236vr+qdkbXiVYHDNtRKBTMcs/zYo+Ptm0tx1Nd+VBaKG8/Pz9vqjV2dnbGjk1aqGZYKpXMtqWFZLRYLMqyrNgv2kEQyHXd2HGG7bVtW+Vy2Tyus7NzVc8VAAAAAFTbtCTztdde09zcnPl1dX5+Xul02iwPu7GmUinl83kdOXLELNuzZ48++ugjpVKpVXfx9DxPs7OzZpvhfSutI8msc+fOHZ09e9Ykdnv27NGbb76pVCql06dP6/nnn9f4+Li5/eyzz5qkdK3HMzc3t2x33Y6OjkVdevP5vN5++211dXVJWkjkDx06pFu3bunAgQM6fPiwmQLg9OnTOnr0aCwhDX3zm9/UnTt3TDfibDa74vMLAAAAALUkmmSGV84GBgb01FNPaWhoSOVyWWfPnl00Gfe1a9dUqVTM7eiVv76+PmWzWZPclctlXb58edXt+PznP6/29nYzoXYQBNq3b5+Z9LqWWhOGh/sM5ycrl8tmrrd79+6pVCrFbksyc7QleTzLGRsbM8ltdMLxrq6u2GTjuVxOU1NT5spoKJyoOxwPOjw8rFu3biXSNgDbn+d56+7KH32fXG2Pk+p1avXU2Exhj5I33nhDvu+vaphIdS8ThkIAALabRJPMcCzI6dOn9c4776inp0eZTEY/+clPll3PdV2TFKZSKV26dCm2vFwux7qSLqWzs1OTk5N66623JEmXLl2KjU2JTui9Hqttx1qPZ2ZmRrt27VrXGNZcLqcHDx6ou7tbXV1devvtt01iCQAbrbGxUffv31/3ukNDQ7FeFCslXGEvkUuXLml6etq8z9Zj7KFlWTp79qyuX7+uF154QfPz82Yc/VIcx9HRo0djhetW20On1hAJAAC2ok3pLjs8PKy5ubnYWL+uri7TXba1tTXWXXQ9YwJ931dLS4suX76s4eFhTU5O6tChQ6tO3MJ1ovsOiwitJrGMWs/xZDIZc8VUWvjysmvXLs3MzKy47vj4uA4ePBirUDs2Nqbdu3fHxpS2tLQs2t709LQqlYrpcrva9gLY3mzbXvHK3Frep5Zat7oXRfXY86W0trZqcnKyblXBJenYsWOam5szCe7777+/qLdItaamJk1NTdWs+DoxMbFsApnP5xFP6BMAACAASURBVNXQ0EC1WADAlrchSWYul9PTTz8d+/A/deqUstms6R60d+9e0132zJkzsWUffPBBrCttLel0WgMDA2adbDarF154wVzF6+3t1dzcnIaGhlbdnSr8NTl8/P79+/Xqq6+u+UvMWo9nZGRE5XLZdLWVFlec9X3fFPSpdvv2bTU0NGh+ft58+cjlcrp+/boGBweXLWU/PDysV199Vfv37zftBYClRLt6fu9731M6nTbvU9Flo6Oj8n1ftm2bhDUseOa6rpqbm2PrSgu9OtLptPnBLdo1tvoKZ60rqNHHR98vXdfV6OioKT7n+74cx1GlUlm07dUew82bN3Xw4EFdu3Yt1obW1lZJC+/Ztbr/zszMqKWlJZZMhsXXnnvuOQ0MDJh9Vj9nruuabVYfU7RQXbTQXrlc1o0bN+iSCwDYdOuaYJNJlJMNz/MC3/djtz3Pq3u7iI0NXkdEPaPW+ee6blCtUqkEjuMEruuavyUFvu+b9y3HcYJyuRxbViwWA8uyzDaj72mu65rl4X2O4wSlUimwbTvwPC8ol8uBbdux+yUFtm0HpVLJ7EtaeM8Mt2dZVlAsFs3+fN837bZtOyiXy7G2hX+v5RgcxwkKhUKs/eH7dvX+l3qOo+/51c9HrefM9/2axxTuz3Vd83f0/6VSqQSu69b9fFvN+UcQBEFsm1jfinw4JBvRL03VX6iI7Ru8joh6xnLnn23bge/7sSQqmuRI8R/DlltW/SPaSvdFk6bw/mgCVv0eaVlWUCgUFiWd0YQv3Fb1uq7rmnas5Rii60Wfn9Umc9WJaPUPi9X7ix5j9TEt9/lh23ZQLBa35OcJ738EQRDbNzZtChMsLzrWJpfLqaGhgQI+ALaM6jGUYUXu+/fvr7isunK3tNDdNXqfbdvav3+/xsfH1dzcrEwmo76+PgVBoMbGxtgUTk1NTbHq2dVdb6P7j1bdrrVuZ2enZmdn13wMra2tmp2dXfT8rHZ8algHIKx6Hu3+W2t/0SEU1cfU1tamcrmskZGRRcfX3d0tae21BQAAeBgkmQCARfL5vDo6OmJj0tPptClsc+HCBWUyGZPoLLUsHF8ZPk5anJDZtq2LFy9qamrKFNEpl8tmnt/qyuDVCV64/3Bc+7FjxyRJV65cUVNTkyqVikmyoutWJ5ZrOYZqx44dUzqd1sjIyJLjMaPCRHJ2dla2bSubzZrt19pfNHmsPqampibNz8+b/6twyizHcWTb9orzMAMAkDSSTADAisIrb+HVxUKhoKmpKU1PTy+7rK2tLZYQSQtJVENDgyneNjg4qKtXr5pkMp/P69atW6ZwWaVSiRXKqS76k8/ndf36dbO9o0ePmqJt0Sq0lmXFqnBHr4Cu9RiqdXZ26tatW8smc9HCRENDQ5qbm1Nvb6/Z7uDgoDzPq7m/aHJcXVm3s7PTXPW8ffu2MpmMhoaG9NJLL6lYLC66igwAwGZYVz9bxlIkF9GCD7WKYRDbN3gdEfUMzr/1h+M4wcTERCDVHp+5FaJWgaStFJx/BEEQ2zc27Uqm53l1LaEe/oJcaxoT3/dj5d9939+0tlqWpYMHD+qHP/yhhoeH1d/fr7m5OdPdK2krTebt+/6KU70AwE43MjKiXbt2aWRkREePHtXrr79e7yYtcuLECVUqFY2MjNS7KQCAHeaxejdgM/3yl79UZ2dn7D7HcfSbv/mbsXksq8f/bKQDBw5IUuxLwPj4+KJ2JiWfz1NQCAAe0vDw8KZ+VqyW7/vat2+fJOnDDz/UyZMnGY8JANh0G3Il03EcFQoFMxH2VvHee+8pm82aK5aS1NXVpffeey+WZG6mrq6uWMEGaWFMTbSdExMTS155BAAg1NHRoVQqpVQqpUwmw4+KAIC62NTCP0888YTK5bIpfBDtlhktiFBd5MF13ZrLfN8390cr+fm+rxs3bqhcLse6wb7//vuam5szJd3DIhBvvfVWrJ3R7rK+72t0dFSVSkVBEKhcLst13djtaNIabVN0mW3bsWMvFouyLEuNjY2LqiROT0+rUqmora1Ntm2rra1NXV1dsce4rmu2Uavd0ecs+lxXd5eNPq5cLiubza7uPxMAAAAAatjUJLOtrU0nT55UKpXSpUuXdOjQIZMk9fb2ml9f8/m8jhw5Imnhqujhw4dNKft0Oq1cLifP8zQ7O2vWkRQbR3ngwAGdPHly0S+50a6oYVfVlUrNP/nkk/rjP/5jpVIpTU1N6dChQ7HbJ06ciO0/bNOdO3d09uxZWZalEydO6M6dO2ZZdM63aJXEavl8XplMRr29vbH7r1y5okqlYo7BcRzt3r1bly9fXvScnT59WkePHl10NdS2bR0+fFinT59WKpXS+fPn1dDQsOxzAQAAAADLSTTJDK+KDQwM6KmnntLQ0FDsat7U1JRJ+KrnA4teyezr6zPzfHV1dcUmlpZ+Pb9YT0+PWWffvn1mUmtJunPnTs1uQtGuqF1dXXr33Xf1i1/8YtnjipaKn52dXXS7sbGx5uTZly9fNsc4Njam559/ftGVz/UaHh7Wu+++a5Lx6PNU/ZzlcjlNTU2Z+d9C3d3dsaIQuVxO//Vf//XQbQOwfbmuu+IPcxu131rF28L761FYLuw9stohDdU9TOpZDA8AgI2UaJLZ399vrpy988476unpiV1JrO4WGnJd1ySN4VXO1bh06ZK5Mlg9YfdSVwfz+bzm5ub0pS99SY2NjSYRXM5yVxpXK5fLKZ1O6+TJk7p48aLp6jo7O6vW1tZ1bfPy5cvKZrP62te+pr179+ratWsP3U4AWE50vsbN3m/0X+nX1bk//PBD8z7tOI5KpVIiP+YtJ0wQe3t79dZbby0a0lDNcRwdPXrU9BxJpVKLeqgsZzOrngMA8LA2tbvsUlpbWzU3NxebWDo0Njam3bt3x74whJNmR7vbrsX4+Lj+9E//VJISK4oQtina9rAbbXRC7Xw+r5MnT0r69VXc6BXY8P5wgvDlhAnzl7/8ZUm/rlBb/Zw5jqOWlhbNzMzE1p+ZmVEmkzFdbm3bVktLy1oOG8A2Zdu2fN+PvceGPTaS+OFtrRobG3X37t3Y+2U41VOpVDLvb7lcTg0NDRta8Ma2bbW3t5tpS2ZmZvTEE08su05TU5OmpqaUy+UWLfM8b8Wpozo6OtaUlAIAUE8bkmTmcjk9/fTTqy6bfubMGWWzWdOF6IMPPjDVXnO5nN5++20NDg7GCv/09vZqbm5OQ0NDNQsJLefKlSuanp6OdW1NQvgFIGzP/v379eqrr2p4eDjWHXhwcFCTk5PK5/MaGxvTrl27Yl/kwsJE09PTpmDQUr9gj4+Pq6urS2+++aZ5vnO5nK5fv26es4GBAV29enXRl5tcLqerV69qYGBAQRDo4sWLKpfLiT4nALaP8Aewz33uczW7fEa7g46Ojsr3ffNjV/Q9MOzJES2IFh1K4HmeKd5WLBb1jW98Q7t27VKhUND8/LykX1/F9H1fmUzG/CgXnZM5up2wrdE2LlV8LlpUrVYxtxMnTpj38NDjjz8uy7Lkum7NYREzMzNqaWmJdau1LEvFYlE9PT3q6+szxxoWrwvbbNu2isWibNs2yf/o6OiKx3Hjxo1FPxQAALBZgvVEEATrWo+Ih2VZQbFYDFzXNff5vh+7TWzf4HVE1DNqnX+u6wbVKpVK4DhO4DhOUKlUAt/3zWOLxWJgWVbgOE5QLpcDx3ECaeF9LFzmeV5QLpcD27bNfmzbDsrlcuB5nnm853nmPTH6eMdxgkKhEJw/fz4oFAqBZVmB67rmvTJsT/T9tHo71W33PC/2d9jWcD3P88x+Lcsy7bYsKygUCuY4o+0LjzXc1lLPbbjfcN1SqRQ71mg7q5/ncBvh81Z9HOHxhscR3c5WC97/CIIgtm9sie6yO9nw8LBu3bpluv66rqtsNqsrV67Uu2kAdqBwbP3x48d19+5d9fT0mKreXV1dKpVKOnXqlKT4UIcjR47ozp07psdEWCRNkvbu3avz58/Hrvx1d3erXC7rzJkzpqv+/fv3zdXS6OObmpo0Pz+viYkJpdNpPfvsszp48KCuXbsWGyMaDkG4ffv2ou00NTXF2h62MZzK6oc//KGGh4fN0AdJunfvnhoaGvTGG2+YK5O1hjOE7RseHlZvb2+senj1c9vT06NsNmuutjY1NcUKtdVqZ2trqyk419raqrt375qeM+E0WGFX5qtXryqfz2t4eFhzc3OJ99gBAGA1Hqt3A7DwxSO02i7GALDZGhsbY9W1GxsbNT4+LsuytGvXLo2NjUn69djNW7duLTnGvLW1Vc3NzRoaGtLHH3+sc+fOKZfLmXmIwzHm4WNnZ2c1PT2tubk5HTx4UPPz88rlcvJ93yRS0aEGx44di20nmqgt177osnw+r3w+b7rZtrW1SZIqlUpsrP1aiiGFSWw4trR63c7OzthzHG1P9O9wWfi8RxNsaWHc6O7duxeNxQcAYDNwJRMAsEg+n1dHR0cs2clms6boT5jghElMOp020yRduHBBmUzGJDzpdNokaFFDQ0Ox+Y+leDIYamxsNPvNZrM6cOCAXn/99UWJVPUVv2hBueg2qhOyaPvCYkI///nPzdXLM2fOqFQqLZoGSlpI5p599lmNjY0tOR4zKkwUo1dRo8l5NFmvbmuYEIfHW50gh8dhWZbOnj27qgJyAABsBJJMAMCKqhOzsCr1yMiIuTrX19enIAhUKBQ0NTWl6elp5fN5Xb9+3RQYC5OwM2fOqL293RSpCefejCaDUjyZDbuAhvMgh4lhmEhF1w2vskoLiWA2mzVtb2trM1cjq9t39OhRvfrqq3rw4IEuXryoIAg0NDSkubm5WK+TUHd3tx48eFCzamwoWown3FZvb6+Gh4c1Pz+vgYEB+b5f86pvtK1tbW0ql8vm6mx3d7fm5ubMFdcHDx5oYGBAP/7xj/Xee+/F5qYGAGCzrWsw56M6YN+27aBUKpkiFtGCCwSx2fGovo6I7RGcf2sPy7IC3/cD27YD27aDYrG4JT9DwkJK9W7HcsH5RxAEsa1jfSs+qh8OnufFPnirbycdy33Q16pcSOyseFRfR8T2CM6/9YXnecHIyEhQLpe3ZCXw6kq/WzU4/wiCILZv7KjCP+H4l3/6p38y942NjenFF1+UZVkbUnSno6Mj8W0CAOonrOy6lbiuq76+PnP70qVLy3bhBQBgI23ImEzHcVQoFLbcBNAHDhyITdotyYxtCccXua4bm1wcAICtLpx6Joxa40cBANgsm1b4x/M8TUxMqFwuKwgCVSoVOY5jljuOo0qlUnNZtGhCsViU7/tmeXS9IAhMgmjbtorFom7cuGGKSjQ1NS0qPR8WXgirBnZ2dqq9vT2WIFuWpWKxKNd1Y+0tlUqybXvJNkiS7/vmdrid8HEvvvhikk8xAAAAANTdplaXbWtr08mTJ5VKpZTP5/XVr35Vtm3Ltm299NJL5pfYc+fO6eWXXzYJ3LPPPqvjx48rlUrp1q1beuaZZ8w2c7mc0um0mTy8vb3dlI/PZDJ6+umnlUqlTLfVaEn7Wjo6OhZNpD08PKxbt26ps7PT3HfkyBG9/fbbkqSXX35Z586dM23Yv39/LCENvfbaa5qbmzO/NM/PzyudTj/ckwoAAAAAW0iiSabrugqCQAMDA3rqqac0NDQUmzMsWk79ypUrKpVKamtrU3d3t5qbmzU4OGjWz2QyamtrU1dXlx48eBBbr1gsmn1GryIODg6qoaEhNmH2tWvXEjm227dva/fu3XIcx8zNNjY2pu7u7tiE3/l8Xnfu3FFra2ts/XButLCkviRdu3ZNlUolkfYBwE5g27ZKpZLeeOMN+b6/qmEZ4WdTrd4mAAAgeYkmmeGVyNOnT+udd95RT0+PMpnMqubpmp6eVk9Pj7nKF52ceym2bS+6ilgul83ySqUSG385MzOjXbt2rWusaD6f19tvv62urq5VzYsGAEiWZVk6e/asrl+/rhdeeEHz8/NmPP1SHMfR0aNHdfr0afP5strCPWFCGx2+AQAAVrap3WVbWlrMVc1jx46poaFB9+7d0+3bt5XJZHTs2LFF69y/fz+23oEDB9TQ0CBJiybi7u7uViaTWbYNmUzGTCouxSf6XsnY2Jj27t2rgwcPmiuSt2/fVjqdNl90bNvW/v37Y5OJSzKTiEe73HZ1ddFdFsCWZNv2qq8UbpZjx45pbm7OFLV5//33zXj6pTQ1NWlqaqrmj4ITExPLJpD5fF4NDQ38oAgAwBptSJKZy+X09NNPLxr7eO/ePV28eFFBEMi2bZ0/f175fF75fF7nz5+XbduxAj+WZam/v1937twxXWlffvllc7Uyl8vp7bffNssOHjwY60pbbWRkROVy2SSn0uKKs77vm33XWj+dTiudTuvKlSuSFr6EfP/739crr7xiuuzeuXOnZmW/U6dOKZvNmmPcu3cv3WUBPDIsy5Lv+6agWhAEsfHn0W6pvu/XvH90dFS+75sfDpdaFia5o6OjCoJAN2/e1MGDBxcNgQiHJvi+H9tnaGZmRi0tLbFk0rZtlctlPffccxoYGDD7jO7PdV25rmu2Wb08euzRom7lclk3btygSy4AYMdb1wSba51E2fO8wPO8h57Y07KsoFAorHuSac/zAt/3E28XQawnmIycqGfUOv9c1w2qVSqVwHGcwHGcoFKpmPdQ13WDYrEYWJYVuK5rHmfbdlAqlQLHcWL3Swp83zfrOI4TlMvlmsvCdoTvz47jBIVCIbAsy7Q1fP+2LCsoFotLvpeH24q+90fbHn1MdBu+75vb1cvDz5Jw3+G2w+fIdd26//9u9eD9jyAIYvvGpnaXTUK0m+16XL582RTwCSvXXr58OeFWAsCjKRxbf/z4cd29e1c9PT1mjHxTU5NKpZJOnTolaeEqYdgbo7OzUz/72c+Uy+XU3d2tdDqte/fuxe6XpNnZWU1OTmp4eFhHjhzRnTt3ai5rbW3V3bt3zfjJpqYmzc/Px3rINDY26v79+xoeHtaePXuWHGvZ39+vnp4eZbNZc4WxtbXV7Cu8Hd1fOJRibGys5vLGxkbNzs7qwIEDSqfTev311yUt9NgplUq6fft2Qv8jAAA8eh6rdwNWYtu2Ll68qN/4jd8w9126dGlVxYRqCbvnhhhrAwCrU52YdXV1aX5+XpKUzWa1b98+BUGg6elpvfDCC5IUS9TCKtu3bt1alMRVLwv/ju57dnbW3F7LeHppYVz85OSkGhsbJS0kieHY+lr7iw6lqF4ebXtTU1OsAnp3d7ckxeZjBgBgp9m0K5m9vb2rrugXlc/nlclkTFXAVCpVc7wjACA5+XxeHR0dJqEME62Q4zjav3+/GSNZqVRMBdfoXMPpdNoU57lw4YIaGhpMYli9LJPJ6Pbt26Y423JXA48dO6Z0Oq2RkZElx2NGhe2fnZ2VbdvKZrNm+7X2F00em5ublU6nTbvD22GPmmw2K8uyzBRXK83HDADAdvfIdZcFAGy+MBF74oknzHzGV69eVS6X0/DwsP7pn/7JFEALi+KEVw/7+voUBIE++OADFYtFjYyMLFpWKBQ0NTWl6elptbW1qVKpLHs1sLOzU7du3Vo2mfM8z7RnaGhIc3Nz6u3tNdsdHByU53k19xe9ctrW1qZyuWzmQ+7u7tbc3Jzy+bypjj40NKSXXnpJxWIxNh8yAAA71boGczJgnyAePngdEfWMtZx/tQrvrDWqC6+tJRzHCSYmJgJpoQjPerezkREteFTvtjwKwfsfQRDE9g2uZAIAVtTV1aV333133d1AwzmE13uVb2RkRLt27dLIyIiOHj1qCu1sJSdOnFClUjFXPAEA2MnWlZ3yCyRBPHzwOiLqGWs5/3zfX/O0HOF0HqHtOF2U7/vm+MrlcmDbdt3b9KgE738EQRDbN1K/+mPNgiBQKpVaz6oAfoXXEeqJ8w/1xPkHANsX3WUBAAAAAIkhyQQAAAAAJIYkEwAAAACQGJJMAAAAAEBiSDIBAAAAAIkhyQQAAAAAJIYkEwAAAACQGJJMAAAAAEBiSDIBAAAAAIkhyQQAAAAAJIYkEwAAAACQGJJMAAAAAEBiSDIBAAAAAIkhyQQAAAAAJIYkEwAAAACQGJJMAAAAAEBiSDIBAAAAAIkhyQQAAAAAJIYkEwAAAACQmMceZuUgCJJqBwAAAABgG1h3kplKpZJsBwAAAABgG6C7LAAAAAAgMSSZAAAAAIDEkGQCAAAAABJDkgkAAAAASAxJJgAAAAAgMSSZAAAAAIDEkGQCAAAAABJDkgkAAAAASMxj9W4AAKB+giCodxMeWfPz89q1a1e9mwEAwJZDkgkAO1Qqlap3Ex5ZH3/8sT766CN98pOf1Kc+9al6NwcAgC2F7rIAAKzBxx9/rP/5n//R7/zO7+ixxx7Tv//7v9e7SQAAbCkkmQAArNKrr76qxx57TH/5l3+pUqmk69ev67d/+7fr3SwAALaUlCQG5AAAsAqVSkX/9m//pj/4gz8w93388cf68MMP9ZnPfKaOLQMAYOvgSiYAAKtQLpf1iU98Qn/4h38Yu//SpUvKZDJ1ahUAAFsPSSYAACvYtWuXPv3pT+u73/2u/u///i+27OWXX1alUtH8/HydWgcAwNZCkgkAwAr++7//W/fv39df//Vf11x+9uxZPfYYBdsBAJAYkwkAwLLu37+v3/qt31J7e7v+8z//c8nHPXjwQP/v//0/kk0AwI7HlUwAAJbR3Nysy5cvL5tgStLXv/51feITn9CXvvSlTWoZAABbE1cyAQBYwv/+7//q/fff12c/+9lVPf4//uM/9Mwzz+iTn/zkBrcMAICtiz49AAAs4eOPP9ZnPvMZBcHqf4+dn5/Xvn37dPfu3Q1sGQAAWxdXMgEAWIcgCJRKperdDAAAthzGZAIAAAAAEkOSCQAAAABIDEkmAAAAACAxJJkAAAAAgMSQZAIAAAAAEkOSCQAAAABIDEkmAAAAACAxJJkAAAAAgMSQZAIAAAAAEkOSCQAAAABIDEkmAAAAACAxJJkAAAAAgMSQZAIAAAAAEkOSCQAAAABIDEkmAAAAACAxJJkAAAAAgMSQZAIAAAAAEkOSCQAAAABIDEkmAAAAACAxJJkAAAAAgMSQZAIAAAAAEkOSCQAAAABIDEkmAAAAACAxJJkAAAAAgMSQZAIAAAAAEkOSCQAAAABIDEkmAAAAACAxJJkAAAAAgMSQZAIAAAAAEkOSCQAAAABIDEkmAAAAACAxJJkAAAAAgMSQZAIAAAAAEkOSCQAAAABIDEkmAAAAACAxJJkAAAAAgMSQZAIAAAAAEkOSCQAAAABIDEkmAAAAACAxJJkAAAAAgMSQZAIAAAAAEkOSCQAAAABIDEkmAAAAACAxJJkAAAAAgMSQZAIAAAAAEkOSCQAAAABIDEkmAAAAACAxJJkAAAAAgMSQZAIAAAAAEkOSCQAAAABIDEkmAAAAACAxJJkAAAAAgMSQZAIAAAAAEkOSCQAAAABIDEkmAAAAACAxJJkAAAAAgMSQZAIAAAAAEkOSCQAAAABIDEkmAAAAACAxJJkAAAAAgMSQZAIAAAAAEkOSCQAAAABIDEkmAAAAACAxJJkAAAAAgMSQZAIAAAAAEkOSCQAAAABIDEkmAAAAACAxJJkAAAAAgMSQZAIAAAAAEkOSCQAAAABIDEkmAAAAACAxJJkAAAAAgMSQZAIAAAAAEkOSCQAAAABIDEkmAAAAACAxJJkAAAAAgMSQZAIAAAAAEvNYvRsARL355ps6cOBAvZsBACsKgkBBENS7GQDwyBsZGdHBgwfr3QwkKCWJT0hsGUEQKJVK1bsZwJbE6wPYPLzegM3D6237obssAAAAACAxJJkAAAAAgMSQZAIAAAAAEkOSCQAAAABIDEkmAAAAACAxJJkAAAAAgMSQZAIAAAAAEkOSCQAAAABIDEkmAAAAACAxJJkAAAAAgMSQZAIAAAAAEkOSCQAAAABIDEkmAAAAACAxJJkAAAAAgMSQZAIAAAAAEkOSCQAAAABIDEkmAAAAACAxJJkAAAAAgMSQZAIAAAAAEkOSCQAAAABIDEkmAAAAACAxJJkAAAAAgMSQZAIAAAAAEkOSCQAAAABIDEkmAAAAACAxJJkAAAAAgMSQZAIAAAAAEkOSCQAAAABIDEkmAAAAACAxJJkAAAAAgMSQZAIAAAAAEkOSCQAAAABIDEkmAAAAACAxJJkAAAAAgMSQZAIAAAAAEkOSCQAAAABIDEkmAAAAACAxJJkAAAAAgMSQZAIAAAAAEkOSCQAAAABIDEkmAAAAACAxJJkAAAAAgMSQZAIAAAAAEkOSCQAAAABIDEkmAAAAACAxJJkAAAAAgMSQZAIAAAAAEkOSCQAAAABIDEkmAAAAACAxJJkAAAAAgMSQZAIAAAAAEkOSCQAAAABIDEkmAAAAACAxJJkAAAAAgMSQZAIAAAAAEkOSCQAAAABIDEkmAAAAACAxJJkAAAAAgMSQZAIAAAAAEkOSCQAAAABIDEkmAAAAACAxJJkAAAAAgMSQZAIAAAAAEkOSCQAAAABIDEkmAAAAACAxJJkAAAAAgMSQZAIAAAAAEkOSCQAAAABIDEkmAAAAACAxJJkAAAAAgMSQZAIAAAAAEkOSCQAAAABIDEkmAAAAACAxJJkAAAAAgMSQZAIAAAAAEkOSCQAAAABIDEkmAAAAACAxJJkAAAAAgMSQZAIAAAAAEkOSCQAAAABIDEkmAAAAACAxJJkAAAAAgMSQZAIAAAAAEkOSCQAAAABIDEkmAAAAACAxJJkAAAAAgMSQZAIAAAAAEkOSCQAAAABITEpSUO9GPAqCgKcJj4ZUKrXp++T1gUdFPV4fq8XrCFgen2/A5nnY19tjCbVjR9jKX04Aqb4fhrw+sNU9Cl8WeR0BtfH5BmyeJF5vdJcFAAAAACSGJBMAAAAAkBiSTAAAAABAYkgyAQAAAACJIckEAAAAqZ5QagAAIABJREFUACSGJBMAAAAAkBiSzB3OdV0FQRALz/M2bH++78t13RUfZ9u2yuVyrF3FYlGWZS25juM4KpVKsm079jewFp7nLXpNrOacXQ/LslQoFOQ4zrKPq/U6DYJA5XK55jnO+Y/NZlmWisXiqs7PJDiOo0KhsOxnQtiuWq8x13Xl+36ibbJtW8VicU3H7Pv+hn7mAtU28zNuta9TafH3vkqlsuJn43L7s21bpVJpzdtAcpgnE5qentbx48c1PDxc76bEVCoVnT9/Xrlcbs3r5nK5da0HSNLdu3fV0dFR72YY/f396u/vl7TwpXR8fNzcroXzH/Vy6dKlZc9NxG2l9xnsHFvtM86yLJ09e1ZXr15N7P0jn88rn88nsi2sD1cysWYTExP8MgT8imVZ8n3/kbtq6DiOJiYm6t0M7GCu63IVLwG8lrGRNuP8am5uVjqd1szMzIbuZz14n1o/kkwsqbpLxc2bN1UsFvXcc89pYGDAdIVyHEeVSqVmd9toN79yuaxsNhvbh+/7a+5aFd3fUt0pot0Fq49jpW63QC3V3QHL5bL+/u//Xm+88Yb27dunwcFBc25Fz7nqczS67Ec/+pHS6fSS+1jNuRp2DxodHTWvv+j5X90FqVgs6ubNmxoYGNBzzz0Xe82u5rUFrFV1d2/P8+R5nvr6+tTT0xPrrrfUZ0L1a+PFF19cdh9r7f631Gs2fH0VCoVY+6PtrP4C+tWvftUsi3bJ9X1fN27cULlcNscW7S5bfYzh/WE33ImJiUXvDa7r1nwtP+zzgZ1nLZ8VS71eVnqdLvV9Mf//27v3uKjq/H/grxEJMBmvUCSzAV6i0U0zb9BFG/VralZq9e3Ho9EV3d0ofWzZri6V2I6l1vehX/dbruvuuD0Es762fL1UittAUgkKkpccLyCKMgMKijLIZeTy+f3hzmkG5gYMzICv5+Pxfihw5pzPOXNe53POmXPOpKSgrKwM8fHxdvu85vuS7mwXml8u66h/s5dxS25bu52ilgTLdQkhvN6GjiitViua02q1Qq1WC4PBINRqtc3wKpVKFBYWCo1GY3d81q9Tq9WivLxcGlaj0Qiz2Sy0Wq0AIHQ6ndDr9dJrdTqdMBgMQqVSCbVaLUwmk0279Hp9i3ZpNBpRXl4u1Gq1w/9bt0+v1wudTuf15d7d1tPulA+dTmez3pnNZqHRaIRWq7VZXy3lKCuWsn5d8/VSq9VK4wdarp96vb7FNPV6vZQhyzjNZrPN66yno9Pp7K7zzefHWba8/Z7cKeupr7fPWalUKmEwGGyyYzAYxJtvvumwz3C0btr7e/P+Qq/XS/1F83VVo9EIk8kkNBqN3XZZ9yn2pts8s9b9lr2fLdO29FuWNlumbflZr9cLk8lkkynrzFtn2/JaS39sb7yWYZtn2dny8PZ60hXz0ZVzaa8c9XHu9hXO/u4sp833CS3rtXV/Zmmbdb+o0WhEYWGhUKlU0vQs43R3eq72Ha0z3bydzZeLs31Xb7+3nixPrPf8JJNgNBoxefJkyGQyyGQyLFq0CCkpKaisrERycrLLywSszw4lJycjJCQEQ4cOxcSJE2E2m3HgwAEAt+8TO3fuHIDbZ5+io6ORnZ0tjWfr1q0Abl82Ady+J3PVqlVSu4YPH46JEydi0KBBSE5OhhACK1asgFwux9ChQ13Op2U+pkyZ0uplRHeWU6dOSetdQEAAkpKSkJmZCYVC4dYnfNZneRcuXIg+ffpApVIhNjYWZWVl0n0i27dvh8FgAHD7rGtoaCiysrKk8aSmpiIwMNDlp5kmk0nKT3NZWVl4/PHHXZ5tbU+2iCy2bNkiZSc8PBzr1q3DhQsXsGLFCrcetGP9CcHkyZMRFhZmt79ITU2F2WwGgBa5SkpKQnFxMe677z4ALfsSmUyGLVu22EzXUWaB2/nKzMwEABQUFKC8vNzmZwBSTsxms5ThjIwMpKWlISwsTJpOTk6O3fvE1Go1FAoFFi5cCCEE0tPTMWjQIERERNgd75kzZ6S/NedqeRDZ6+Pc7SsA+3l58803nea0+T5hSkoKcnJybNbjKVOmQCaTISUlBcuXL4dGo0FsbCyioqKQnp4uTU8ul2Pq1KlOp2fNVf9mnXHLp6r28uLOviv9jAeZ5NDw4cMhk8kAwOHlNmq1GgkJCfjggw8gk8kwb948mEymDm1X84NiywbSGa1Wi+joaCxZsqRD20bdV0pKCuRyOaZPn474+HiHHbFlXbOso813ZjuCyWSC0Wi0+7ekpCQEBATgtddew8aNG51egtuWbBG5YtlxzM7OdvoEc8vvLetfenp6p7TPVWad5au1ioqKHP7N3sGw5aSo2WyWDmiJOoK7fUVn9HGLFi3CuXPnpAM964NimUwGuVyOb775plXjdNa/eTLj9DMeZJJLU6ZMQXp6ut2zppazQJbOb+LEiZDL5QCAkpISyOVyTJo0CcDPZ2qBn8/ExsTESOOaP38+ADgNemZmJuRyOeLi4txuv0ajwbPPPovExESfe4IudT0ZGRmYN28eysvL7X7KFxERgcrKSmlds17Hi4qKoFAopIPTSZMmISQkBMDPZ09jY2Ol4efOnYu6ujqPrLcpKSl47bXXANg/49qWbBG1xqJFi7BlyxabT/ashYWFobS0FMDPnxgAtzNXWVlpk6XY2FjpfuasrCyEhoZKudJoNFAoFG4/RMRZZlsrICBAyrBKpcJTTz0lzZMzlvzPnTu3zdO2aO/yoDubq77CUV6OHj3qNKeZmZkICAiw2SccN26c3RMvlit7SkpKkJWVBYVC0eIKIlfbBWue6t/auu96p+JBJmHQoEHSZQiWs8zNbwAfN24ctm7dioyMDOnSJ5PJhIKCAhw/fly6BOHJJ5+ULv9LSkrCjh07sGLFCgghsHHjRptPOS1naK2n4epAMCUlBRs2bIBarXb74Shz587FwIEDpTbyJm1yRalUtnhohvWDB9LT01FXV4ekpCSbS8sNBgP27duHPn36SMPeuHFDunxn0aJFyMnJkdbFhIQEm0wsWbIE0dHR0mv79OnT7k/frS9rSk5OxpkzZ5CSkiJd/mvJfFuyRdSc5XJPy7Z2zZo1Ng/mUKvVSE1NBfDzpdyWjK1duxbjxo2DEAL79u3DxYsXpfEuWbLEJleRkZFSrpKSkrB7926bS+F27Njh9qfwq1evdpjZ1iouLkZQUJC0naisrHT7Fo3m8+juw7eaZ7m9y4O6P3t9nLt9hbO8OMtpSkoKNm3ahOXLl0vTyMnJwaJFi1rscyYnJ2P37t3S13FZ70sKqwfzOJuetfb0b823U23Zd71TyXD75kxyQQghXTpK5Ku8tZ4yH9QV+Pp66uvtI/Im9m9EnccT6z0/ySQiIiIiIiKP4UEmEREREREReQwPMomIiIiIiMhjeJBJREREREREHtPT2w3oSoTgM5LId/3pT3/y6vSZD/Jl3s6Hu5gjopa8nV/mku4knsobny7rJj5djLoCPn2PyDFfX099vX1E3sT+jajz8OmyRERERERE5FN4kElEREREREQew4NMIiIiIiIi8hgeZBIREREREZHH8CCTXNJoNCgsLIRKpbL7d71eD51O5/D1KpUKBoMBQogW5ex1XYlOp3M4L2q1GuXl5dBoNJ3cKuoMzIdrzAe5why5xhxRZ2MuXWMunRMs1yVuP7/6jiyNRiMKCwuFSqXyqXH5Uul0OqHT6bzeDm+tp8wH8+Gs7vR8dJf2dWQxR67LV3LkrWL/1vnFXLqu7ppLT6z3/CTTw/Ly8rrMGQuVSgW9Xg+1Wu2xcWq12m5zdgq4fRYvLy/P283oNpgP5oPajzlijsj3MJfMJbXk9aPlrlCujuhVKpUwGAzCwmQyCbVaLdRqtTCZTNLv9Xq99Bq9Xi8OHjwozGaz9BqtVmvzs1qtFsDtM0CW3wshbM6aaLVam+nm5eUJrVZrMx1X7TIYDEKlUrWYjlarlc4+FRYWOpwPS3v0er00LnvLyd6ZLEfzplarhcFgEHl5eTbT1el0dtvR1mXU/L2ztN/6Ndbjs/692WwWGo1G6HQ6kZeXZ7NMLeNXq9WivLxcaDQar6+nzAfz0dplxHwwR8wRc+QLJQT7t9asc8wlc+kDefP+jHSFcmdhq1QqUVhY6HBlav735oG097O9j+At4bNsLKxXYEvQLCu4TqezCaJOp5OmYT0ey3jthaH5OJsP56id9srV5RLN581kMtlsdJr/7Ci8rVlGzduv1+ulZabValtsyMrLy6VlZr1crTsFrVZrs5y7+04088F8MB/MEXN0Z+TIl/Phrekyl8xld8ulJ/LGy2XbQavVuryBWa1Ww2QyQQiB9PR0REVF4b777pP+fubMGWRkZAAASktLW/wcFhYG4PbH9mazGUIIJCcnIyQkBEOHDsXEiRNhNptx4MABAEBSUhLOnTsH4PblENHR0cjOzpamt3XrVgDAoEGDWrS1+bismUwmZGZmAgBSUlJQVlZmMx/t4WjeAMBsNiMrKwsAYDQaUV5ebvOz2WyW2tGWZaRWqxEaGiqNEwBSU1MRGBho90b32NhYlJWVISUlpcXfiouLpd9blpW95XynYD6YD2vMR9swR8yRNebINzCXzKU15tI+HmS2w6JFiyCTySCTyTBlypQWf1epVFizZg127NgBmUyGyZMnw2g02gxTVFTkcjpqtRoJCQn44IMPIJPJMG/ePJhMJk/NhltMJlOLtnuCq3kzm80oKCho93g6Q2lpaadOz9cxH+3HfBBz1H7MEXkac9l+zGX3x4PMDjRo0CAEBASgpKQEADBp0iSEhIS0ejyWszqWsE2cOBFyuRwAUFJSArlcjkmTJgG4HTaFQgEAyMjIwJkzZxATEyONa/78+QBgd4ORmZmJgIAAaVydwdm8eWo8zpaR5axcbGysNK65c+eirq5OOqNoLSsrC6GhoR69Wf5OxXy4xnyQK8yRa8wRdTbm0jXmsvvjQaYHZWRk4MKFC1ixYoV0FmX37t1YsWIFhBCIj4+HwWBo9XiTkpJw/PhxJCcnQwiBJ598UhpPUlISduzYIU1j48aNNmdwLGfYLJd1jBs3DomJicjIyEBKSgoqKyuRnJwMg8EAo9Fo014hBLRabavaqtfrYTAYHH6nUmvmrTXas4yWLFmC6OhoaZ779OmDJUuWALi94VUoFNIlMc2nYzabu8zT5LyN+WA+qP2YI+aIfA9zyVySfV6/ubQrlK8/MMK69Hq9zdPFWHfOMvLlByP4SnXX957LyHX5+nrq6+2zru66jnAZ+W6xf3NdXOe4jDxVfPAPtaDRaKBQKKRLNKglLqM7F99717iMyBWuI65xGVFn4zrnGpdR5/P60XJXKF89k9X8O36EEG4/TvpOqTtpGfFM75373nMZuS5fXU99vX130jrCZeS7xf7NtrjOcRl1ZHlivZf9+z/kghACMpnM280gcspb6ynzQV2Br6+nvt4+Im9i/0bUeTyx3vNyWSIiIiIiIvKYnt5uQFdy+5NjIt/0pz/9yavTZz7Il3k7H+5ijoha8nZ+mUu6k3gqb7xc1k28XIK6Al5OROSYr6+nvt4+Im9i/0bUeXi5LBEREREREfkUHmQSERERERGRx/Agk4iIiIiIiDyGB5nUIbRaLQwGA1Qqlbeb4jM0Gg3Ky8uhVqu93RTyUSqVCgaDAVqt1ttN8Sl6vR46nc7bzSBqM7VajfLycmg0Gm83xWdwe0dtpdPpoNfrvd0Mn+Kr+91e/8LPrlCt/VJSrVYrmuvIL4DV6/VCq9W6HE6tVguTyWTTLoPBIFQqlcPXaDQaUV5eLtRqtc3/HQ2vUqlEYWGh0Gg0dqdn4U57u0LpdDqH723z5eVsWE9UV/myal/MR2vXVbVaLcrLy4VGo/FYO7VardDr9dK6Yo+rvHaVUqvVwmAwONyW6PV6aZ1wNay75a18dFT7fDFHzt6vjtj+tXacHZHb1rTT3pfDd8Z715ml0WhEYWGh3e1U8+XvbNjmxf7NfrmbS6Blv2Lpb9o6PZ1O16ZxtKesty/2lrUQQphMpnb3F75Szt7f5vuYrVkXXJUn8sZPMjuQ0WjE5MmTIZPJIJPJMGXKFG83CQBgNpuxatUqqV3h4eHIyMhw67VJSUkICQlBSkqKw2EmTZoEADhw4ABSUlIgl8shk8mwZcsWnDp1SpruokWLPDE7Pq358srKykJkZKTPnWnyBl/LR2vX1ZSUFISEhCApKcljbYiJiUF2djYAYMqUKZDJZJg8eTLOnz8vZbY1ee3Khg8fLq0TKSkpqKysxMSJE73cKt/jaznydR2RW1dUKhUiIyORlZWFjIwMhIeHQyaTYdWqVTh//rz0/t0J713z5X/gwAEAP+83dBe+mEutVovo6Gibdg0fPrxd45wyZUq7x9FaEydORGVlJVJSUrBo0SJpXk6dOoUtW7ZAJpNBLpc73U/tLprvY2ZnZyMmJsbLrfoZDzI9QKPRoLCwsN0HDnl5ed3iUprY2FjU1dV1+R1hrVbr8Uv0umuH6sydng93261WqxEaGoqSkpJOaFXHUalU0Ov1Hr8s3Nc6z852p+fI17Smf5g0aRLkcjkKCgo6uFUdS6PRIC8vz6PjzMjIwIULFxAbG+vR8XaWrpTLiIgIVFZW+ty+WWv7jJiYGJSWlnZwqzpeR7znmZmZ6NOnj8/clsWDTC/Q6XQQQki1d+9eGAwGjB49GitWrIDJZIJarYZGo4HZbJaGs+7QtFqt9HuTyYQ+ffrYTEOv19v83Z0Vznp6ZrPZ7spvfV+hdRuspxMWFub2BsB6WVhP07LhLiwstJl/6/myXh6OxtP8bwaDAXq93mY69paxTqfDwoULMXnyZAghpHtGrOfZejr9+vWDyWSS/mYZvvl9mBkZGairq8N9993n1vK5E/liPtRqNQwGA/bs2QMhhNQhWt9j5W67LfchNW/30KFDAcCtHVG1Wm2zvlnfm6LX63Hw4EFp2ZhMJmi1WpufLfPrbDzN/3bw4EGbHUx7y1CtVmPXrl1QKpVITk6W7g9p/l5Z34P1+uuv2+TTsrPW/D7MkpISBAYG8ioAN/lijppz9PrWrMOA7fbXervsTm4d9Xv2+iBLPhz1D47m57777oPZbIbRaHS5TBy9H5Z5ycvLs2mP9ftsnd/WvK95eXnSPDTfPlkyqdVqsWLFCowePdpmfM6y/fe//71F2+zdm1pUVISwsDCXy6Y78GYus7KyMGTIELv3wDrql1xNr/m9kdbTdtYvWbLmbp9haY9KpUKfPn1QVFTk1vJ2tCx0Oh3y8vJsthtardbudsTZeJovt7y8POj1eqmfar6frNVqpdc0f8+bT8e6P3zwwQcdbqes9zGNRiPMZrO0P+FtPMjsQIMGDUJ6errNyqVWqxEdHY158+ZJH/HPmDED8+bNky6Js3zMn5SUhICAAMhkMsybNw/R0dHSjtyzzz4rXT63YcMGhISESNO1hNEy/pycHKxZs0ZaWQMCArBixQqbDYFarUZ8fLx06cEHH3yAhIQEpzsN1pcppKeno7i4WPrI3t0NgOWSQJlMhpSUFMydO1f6W3h4OL799lvpsqLHH38c2dnZ0s8jR46U2udoPBqNBiNHjpSWd1paGoYMGQLgdmeXkJCADz74QFrG48aNg1arxZQpU5Ceno709HTpckmNRoNnn31WGldAQIB0yc/QoUPx2muvSZdaPvXUU9wZdsFX8+GIXC7H4MGD7V5i1Jp2f/TRR0hLS5MuhY2OjpY6fZPJ5NaOqPWlvZMnT0ZgYKBNh3j//fdj+vTpkMlkKC4uxlNPPWXz8/z5812O549//CNycnKkv91///0IDAx0ugyNRiNee+01GI1GzJs3D+Hh4Rg0aJBNzqwvP5bL5bh+/bo0DQCIi4tzOf/0M1/NkVwuR3Jyss0OluU9thg+fLjN6y3rJeD+OgzYbn9TUlLw+uuvS32Dq9w66/es+6B58+YhNDQUGo3Gbv/ganm4+wmSo/fDMi+WvMybNw8KhUKapnX7nI3H3vs6YsQIafofffQRzpw5I81HZWUlPvroIyxatMjmNoIpU6a06EOts+1o2d0pfDGXSUlJWLRoEV588cUWB4GO+iVX07Om0+lQWloqTdu6PYBtpr///nvMnTsXKSkpLvsM630z4PYtX+5e8eNsG2O93fj+++/x4osv2vxsvT/qaDxvvfUWKisrpb8FBgZKB+HN9xlXrVqFF198EZMmTbL7njd/76xvjbG37LoCHmS2g+UMxYoVKxAVFYX09HSbMxLNr8lftGiRdG9RcnKyy0ttrM/kJCcnIyQkBEOHDsXEiRNhNpulSy+TkpJw7tw5ALfPqkRHR0v3dQHA1q1bAdze6AEt78kcPnw4Jk6ciEGDBkk7BStWrIBcLnfrbIjlOv8lS5a0ehlan9VbuHAh+vTpI3XKJpMJmZmZAG5/ulNeXm7zM/Dzpz+OxhMbG4uysjLp4Hf79u0wGAwA0GI5pqSkICcnBxEREXbb2nxc1qwPsC1ttCzvO1VXzYcjZrMZqampdv/mbrvVajUUCgUWLlwIIQTS09MxaNAgh+ucs/FYzrimp6cjKirK5tPxM2fOSJ1TaWlpi58tnxo4Go/l0t2srCwAtz+BT0tLA9D6Zdj8/bBmNpttpnHmzJlWL4vurqvmyGQy2exMW05GWrM+az958mSbT7PcXYcB2+3v9u3bUV5eLvUNznLrqt+z7oNSUlJQVlZm9yqU9mxXmnP0fljmxZIXo9GI8vJym5/NZrPUvra8r81zDwCpqakOryBwlm13l11X1VVzaTmxOHnyZPTp00f6kMFRv+RsetYs07Z8ui+EgFKpdJjprKwst9crV/tmzjjbxjT/YKT5z9b7o/bGY295p6amwmw2A2i5z5iUlITi4mK3tyHW3F12voYHme1gOftpffO+OzcbW86IAGhxeYmFvU/ZTCZTh8yHRfONovUndY5YztQkJiba7AC4szFofhP6li1bbP7u7qc6rsbTGbrD/QGe1t3yYTabnV7K6k67LeOxPslj+VSgoKAAAQEBLndKVSoV1qxZgx07dkhnnZvnxJ0rCdwZT0dztUyp++XIovlZ++YHoO5eDeOKq3XMWb/nbh/kiruXert6P9zNizffVwtPLTtf1dVzmZGRgX/84x8IDAyEUql02C+1luXBO9YfYlh4ItOtueXI1TamNbd1ORtPZ/DU9rCz8SDTiyyX3Ng7IGt+f9bEiRMhl8sB3O6w5HK59PAYy1ko4OdPA6wfkGH5WN/ZBj8zMxNyubxVl6pZNoSbNm1qsWF15/6KiGY3obf1oR7OxlNUVASFQiGdXZw0aZJ0qUdmZiYCAgJsluO4ceMchjkrKwuhoaHtuqFapVIhMDCwyz/cpTP4Uj481W7LGX1Hl7oEBAS4vHpg0KBBCAgIkNYh63W6NZyNx/KpiPXDOCzLrLXLsHnO2uq+++7rFg8U62y+miPre/ctZ/HbynobHxcXh5CQELcOxtrS79njzvKQy+UuTyA5ez9ao63vq2X7ZJ37uXPnOsydp7IdERFxx52o9YVcWh7SmJiY6LBfcjY9a5Zpe+JWIXf2zdz5IMNT2xhH48nIyEBlZaXN8o6NjUVAQACAlvuMGo0GCoXC7v6fvfeuLSz9uq+cvOVBpgckJSVh8ODBLTbCza/J1+l0LR6mMW7cOGzdulV6wprlJuCCggIcP35cuoznySeflC7zTEpKwo4dO6T7Kjdu3Ghzlsty9sl6GtafNNqTkpKCDRs2QK1W273p2J758+dj4MCBUjssNyO7+1H+6tWr0adPH2l6N27ckC4zaA1n41m0aBFycnKk5ZiQkCAtq5SUFGzatAnLly+XLknJycmR7inJysrC448/Lp1tTEpKsnlPHD0cyZnu8pTB1ugO+XDF3Xar1WosWbLEZn21rEfuXlKWkpKC3bt3S/MXHx8vzXtrOBtPRkYGEhMTMW7cOKmd1pwtQ+tLwgwGA4xGo810nH3K60x3eaJgW3W3HK1du1Zav/bt24eLFy+2edkcOHAAGzduhBACarUaGzZscOvrC9rS71k07x+cLY8DBw7AZDK5PIHUvI+xfj9aw9l4XL2vS5YsQXR0tDQfffr0kW6FyczMhEKhkNaz5tuQtmTbstPeVT+p6Uq5bP7QIevbnBz1S66mZ23KlCmorKxscS+qK/b6DGf7ZtnZ2W59kOGpbYyz8TRfbpGRkdL+Z1JSEnbv3m1zOf6OHTuQlJRkd9+g+b6su9sia5av+fKlqwi8/kWjXaHE7b0slhtl+bJpT30hrKfbVlhY2OlfxG2pjvgycuvy1nrKfHimtFqtMBgMbn0xuTfa1tlfum0p6y/fbs94fH099fX2sdpe3vjSenfLk1/g3trSaDSisLDQrW0e+zcWcLs/KC8v99p+nLNqzfrcEeXJLHtovff+m9IVihuZ1pWv7ixrtVphMpnavbPaltJoNKK8vLxDp81OuGuXr56gsbSrI0+QOCu9Xu+Rafv6eurr7WO1vXx1x1ij0QiTyeSVdrV2e8f+jWUpXz1po9frvdYuT+938yCzE4sbma5ZarVamEwmYc3XduA9WeyEWZ4qnU5nkxtfPGnU2vL19dTX28fq+mU5sLPmrZNHrS32byxfK61Wa5Mlb32I0RHlifVe9u//kAtCCOmJYES+ylvrKfNBXYGvr6e+3j4ib2L/RtR5PLHe88E/RERERERE5DE8yCQiIiIiIiKP4UEmEREREREReQwPMomIiIiIiMhjeJBJREREREREHsODTCIiIiIiIvIYHmQSERERERGRx/Agk4iIiIiIiDyGB5lERERERETkMTzIJCIiIiIiIo/hQSYRERERERF5DA8yiYiIiIiIyGN4kElEREREREQew4NMIiIiIiIi8hgeZBIREREREZHH8CCTiIiIiIiIPIYHmeQzPv74Y9TW1mLdunVQKpXIz89Hfn6Z78YgAAAgAElEQVQ+lEqlt5tG5HXMB1H7MUdEvoe57L4Ey3UJIdr1eq1WK4QQQqfTtXkcer1eWDQ1NYnKykrx1VdfCaVS6dbrw8PDxWeffSaqqqqEEELU19eLc+fOCbVa7fXlO2HCBFFUVCTOnDkjhg0bJgCITZs2ifr6erFp0yaXr1cqlWL//v2itrZWCCFEdXW1+Pbbb6VxuVOvvPKKqKysFPn5+WLs2LFeXyZtqfaup96aLvPhvJgP31hPfb19zJHzYo66drF/Yy7tFXPZMeWJvPGTzC6moaEB6enpSE9PR0NDA2bOnInPPvvMrbM9W7ZswX/+539CCIGTJ0/i0qVLCAoKwtWrVzuh5c7NmDEDYWFhOHbsGPLz8wEAe/fuRUVFBR5//HEEBwc7ff2SJUswZcoU1NTU4MSJE7h+/TpkMpk0LndcuXIFJSUluHjxIs6cOdOu+SHvYD7sYz6oNZgj+5gj8ibm0j7m0rd5/Wi5K5SzI/qEhASRmZkpZs6c6XAYT53JMpvNQqPRCABi+vTpwmg0ilu3bom1a9c6fW1cXJyoqKgQN27cEAkJCV5fns1r9+7doqamRixbtszm9ydOnBDXrl0TL7zwgpg+fbr47rvvxPbt21u8XqfTCSGE0Gq1Lf7261//Wly/fr1dy76rlC+e6WU+2l/MR8evp75QzFHHFnPUtYv9G3PJXHZe8ZNMHxEWFgalUon+/ftLv1MqlcjKykJDQwPMZjNiY2Nx69Yt6e/vvvsurl69iqamJjQ1NeHatWtYuXIlAECj0aCmpgapqakwGo2orKyEWq1uMd19+/bhyJEj8Pf3x8MPPwwA2LhxI27cuAEhBOrr63Hw4EEolUqMHj0awcHBuHTpEjZt2tRiXMHBwdi2bRuqq6shhEBtbS32798vnSHT6/UwGAzIy8tDQ0MDGhoa8P333yMnJ0f6OSsrSxreUTvUajVMJhPS09Nx+vRp1NbWQqPRIDIyErW1tbhw4YJNu8rKyhAUFITIyEjExMRg/PjxiImJwdixY22GO3PmDBobG/H888/jH//4B8LDwwHcPsP1wQcfoG/fvpg8eTLMZjM0Gg10Oh2uXbuGL774AtXV1dDr9VLb9Hq9zftw4MABVFRUQAiBiooK6X2Kj4+H0WhEU1MTKioq8NNPP0njp58xH8wH89F+zBFzxBz5HuaSuWQuHeNBZjusXLkSx48fR1xcHIKDg/HWW2/hyJEjSEhIwDvvvIMJEybg+vXr+PrrrzFgwADcdddd0msPHz6M7OxsvP3221i/fj169eqFX/3qV1J4/Pz8MGfOHMjlchw7dgwFBQV221BeXi4N/8c//hELFixAcXExFi5ciF27dmH8+PF477330LdvX/Ts2RNlZWV2x7NmzRq89NJLqKmpwc6dO3H16lVMnToV77zzjjTMoEGD0L9/f6SlpaGurg6PPfYYIiMj8a9//Qs1NTUYPXo0nn/+eaftsFCpVIiIiMDZs2dx9OhR+Pn5oba2FteuXbNpV1FREfz8/NC7d2/87W9/w+9//3ssXboUubm5NsMlJiZi3759uPvuu7FgwQLk5uYiISEBly5dwqlTpwDc3hB9+umnyMvLAwD0798fc+fOxc2bN3Ho0CG7y8XPzw8xMTHIzc3Fjz/+iL59++Lll1/Gf/zHf2DZsmUICwvDqVOnkJubiyFDhtgdx52K+WA+mI/2Y46YI+bI9zCXzCVz6RoPMtshJCQEkZGRCAsLg7+/PxQKBSIiItCvXz888MADaGxsxNatWzFnzhz8/e9/tzmTpVKp8Mgjj2DVqlV48803ERgYCH9/f5trzwsKCjB+/HhMnDjRYQgUCgUAoLq6GjExMQgKCsKIESOwZcsWPP/88/Dz88OQIUNQV1eHpqYmhIaG2h1PTEwMhBBSe7du3Yr6+nqMHDlSGsZsNuOTTz7B008/jYsXL+LWrVvYvHkzZsyYgSNHjkAmk6Fnz55O22FRVlaGuLg4jBo1Cjt37nS4jHv27Cn932Aw4KOPPrI7fFVVFWbNmoUXX3wRx44dwz333IPly5fjypUr0vX1RqMR8fHx2L17NwBACIEvvvgC99xzDxYuXOiwDWfPnsW0adOwYcMG3Lx5E0FBQXj00UcREhKC8vJyJCYmYtq0acjOznY4jjsR88F8MB/txxwxR8yR72EumUvm0rWergchRxYvXozFixdDo9EgISEBS5cuRUpKCgBg7ty5Dl/3wgsvID4+Hv7+/li7di3Onz+PDRs2tBjO+iyMPdOnT8eIESNw69YtHD9+XNog7Nu3D5999pk0XEVFBe6//37U1NQgPDwccXFx2L59e6vn99atWy0uZ2hqarL515q9dlguKbl69arNxqKxsRFBQUEYMGCAzTjCw8PR2NiImzdvOm3b2LFjkZubi507d+LmzZvYunUr+vfvj6FDhzp8TX19Pc6ePet0vAAcnv1rzt4yuJMxH8yHNeajbZgj5sgac+QbmEvm0hpzaR8PMj2grq4ON2/eRH19vfS7s2fP4uGHH8b8+fMRFRWFsWPH2lwuYREdHQ2VSoVevXrBZDK5nFbPnj0RFxeH2bNn4/7770fv3r1x7NgxbNu2DTU1NZg6dSoee+wx3Lp1CyaTCVFRUfjyyy/xl7/8BXFxcXj00Ufx17/+FYmJiejRowdkMhkWL16M7OxsjBw50qa9/v7+OH78eKuXR3Z2tsN2lJSU2H1NaWkphgwZgsjISJvfh4aGStfqx8fHY9WqVcjPz8czzzyDqqoqabhPPvkE99xzD0pKStCrVy+EhoaiqKgIZ86cwcSJEwEAw4YNw+7du3H48OFWz1NzhYWFKC8vx7Bhw7BmzRosXLgQ48aNa/d4uyPmwxbzQW3BHNlijsgXMJe2mEuyxstlPWD16tWIjIzE559/Lv3uvffew6FDh9CvXz/MnDkTRUVFqK6uBgCkpaXh4MGDCAgIwJw5czBw4EAUFRW5Na0ePXpg8ODBGD58OOrr6/Hpp5/imWeeQX5+PtauXYvNmzejvr4ezzzzDF5++WUMGzYMNTU1qKqqwm9+8xv861//gr+/P0aMGIFhw4ahrq4OVVVVSExMxOeff47AwEDMnj0bAwcOxDfffGNzHb27nLXDkaNHj6Jnz54YPXq09LtZs2bhnnvuQWlpKdLS0hAeHo4BAwZAoVAgOjra5vUGgwG9evXCQw89hMjISBQWFuLdd99Fbm4uUlNTceHCBYSHh2PGjBm47777Wj1PzRkMBnz44YcoLS2FUqnEY4891uJ+ArqN+bDFfFBbMEe2mCPyBcylLeaSmvP6Y3K7Qvn6o++7ejn6Mt5bt26Jjz/+WBpu+vTpbn/5cGdX80eMe6N88RHvrPYX8+GZ8vX11Nfb19WLOeraxf6texZz6ZvlofXe+zPSFYobmY6vjz/+WNTW1op169aJCRMmiPPnz4v8/Hyf3agkJyeLL7/8UiQnJ4uvvvpK1NbWiqtXr4rZs2d7rU3shLtvMR/tL19fT329fd2hmKOuW+zfum8xl75XPMjsegub1Y1qx44doq6uTgghRFNTkzAajWLp0qVebRM7YZavFPPR/drH6vzyxRx5q9i/sXyl7oRcemK9l/37P+SCEAIymczbzSByylvrKfNBXYGvr6e+3j4ib2L/RtR5PLHe88E/RERERERE5DE8yCSf8PHHH6O2thbr1q2DUqlEfn4+8vPzoVQqvd00Iq9jPojajzki8j3MZffm9et+u0K199pkrVYrhBBCp9O1eRx6vV5YNDU1icrKSvHVV1+5vDFapVIJg8Eg7NHr9V5fto6eLFZfXy82bdrk8vVKpVLs379f1NbWCiGEqK6uFt9++600LnfqlVdeEZWVlSI/P1+MHTvW68ukrdVV71lhPhwX8+E766mvt485clzMUdcv9m/MZfNiLjuuPJE3fpLZxTQ0NCA9PR3p6eloaGjAzJkz8dlnnzk941NVVYXTp0/jxIkTKC8vBwAUFxfjxIkTOHv2bGc13aEZM2YgLCwMx44dQ35+PgBg7969qKiowOOPP47g4GCnr1+yZAmmTJmCmpoanDhxAtevX4dMJpPG5Y4rV66gpKQEFy9exJkzZ9o1P+Q9zEdLzAe1FnPUEnNE3sZctsRc+j6vHy13hXJ2RJ+QkCAyMzPFzJkzHQ7jqTNZ1t/DM336dGE0GsWtW7fE2rVr3RqHTqcTQgih1Wq9vkwttXv3blFTUyOWLVtm8/sTJ06Ia9euiRdeeEFMnz5dfPfdd2L79u2tmqdf//rX4vr16+1a7l2pfPFML/PRvmI+Omc99YVijjqumKOuX+zfmMvWzBNz2b7iJ5k+IiwsDEqlEv3795d+p1QqkZWVhYaGBpjNZsTGxuLWrVvS3999911cvXoVTU1NaGpqwrVr17By5UoAgEajQU1NDVJTU2E0GlFZWQm1Wt1iuvv27cORI0fg7++Phx9+GACwceNG3LhxA0II1NfX4+DBgy6vaw8ODsa2bdtQXV0NIQRqa2uxf/9+KJVKqNVqmEwmHDp0CEajEU1NTaiqqsI///lP6efq6mps3rwZADBt2jScPn0a9fX10rj27NmD4OBgaVzp6ek4ffo0amtrodFoEBkZidraWly4cMGmXWVlZQgKCkJkZCRiYmIwfvx4xMTEYOzYsTbDnTlzBo2NjXj++efxj3/8A+Hh4QBun+H64IMP0LdvX0yePBlmsxkajcbu8v3rX/8Kk8kEvV5v8x4cOHAAFRUVEEKgoqJCeo+av7/Hjh1DbW0tdDqd6xXmDsN8MB/MR/sxR8wRc+R7mEvmkrl0jAeZ7bBy5UocP34ccXFxCA4OxltvvYUjR44gISEB77zzDiZMmIDr16/j66+/xoABA3DXXXdJrz18+DCys7Px9ttvY/369ejVqxd+9atfSQHy8/PDnDlzIJfLcezYMRQUFNhtg+XyBz8/P/zxj3/EggULUFxcjIULF2LXrl0YP3483nvvPafzsWbNGrz00kuoqanBzp07cfXqVUydOhXvvPOONMyYMWNw8eJF5OTkoFevXpgzZw6uX7+OQ4cOISAgADNmzMDjjz+OrKws5ObmQqvVIiEhAeXl5ZgyZQoSEhKkcalUKkRERODs2bM4evQo/Pz8UFtbi2vXrtm0q6ioCH5+fujduzf+9re/4fe//z2WLl2K3Nxcm+ESExOxb98+3H333ViwYAFyc3ORkJCAS5cu4dSpUwBub4g+/fRT5OXl2V2+V65cabFc/Pz8EBMTg9zcXPz444/o27cvXn75ZQwbNqzF+xsWFobAwECny/lOw3wwH8xH+zFHzBFz5HuYS+aSuXSNB5ntEBISgsjISISFhcHf3x8KhQIRERHo168fHnjgATQ2NmLr1q2YM2cO/v73v9ucyVKpVHjkkUewatUqvPnmmwgMDIS/v7/N9ecFBQUYP348Jk6ciEOHDtltg0KhAABUV1cjJiYGQUFBGDFiBLZs2YLnn38efn5+GDJkiNP5iImJgRBCauvWrVtRX1+PkSNHSsOUlpZi+fLl2LhxI6qrq3H58mW88cYbWLlyJcrKyiCTyeDv749nn30Wo0aNwoIFC7Bp0yYoFAppQ2FRVlaGuLg4jBo1Cjt37nTYrp49e0r/NxgM+Oijj+wOX1VVhVmzZuHFF1/EsWPHcM8992D58uW4cuWKdH290WhEfHw8du/ebXf5njt3zm4bzp49i2nTpmHDhg24efMmgoKCEB4e7vL9JeaD+WA+PIE5Yo6YI9/DXDKXzKVrPMhsh8WLF0Mul2PdunWoqKhAQkICBg4ciNWrVzt93QsvvID4+Hj07t0ba9euxcKFC1FVVdViOOszMfZMnz4dI0aMwK1bt3D8+HHp9/v27cO8efOkSkxMbPtM/pvJZML3338v/dzU1ITGxkY0NjaiqalJ+v0bb7yB4cOH45tvvsG4cePstv/q1as2G4vGxkYEBQVhwIABNsOFh4ejsbERN2/edNo2y9m/nTt3YtmyZbh8+TL69++PoUOHOn2dq+UL3N4gusN6GdBtzAfzYcF8tB1zxBxZMEe+g7lkLi2YS8d6uh6EXKmrq8PNmzdRX18v/e7s2bN4+OGHMX/+fERFRWHs2LE2l0tYREdHQ6VSoVevXjCZTC6n1bNnT8TFxWH27Nm4//770bt3bxw7dgzbtm1DTU0Npk6disceewy3bt2CyWRCVFQUvvzyS3z99dcOx5mdnY2RI0fatNXf399mw9Vacrkcb7/9tnSmzZnS0lIMGTIEkZGRNr8PDQ2VrtWPj4/HqlWrkJ+fj2eeecZmo/zJJ5/gnnvuQUlJCXr16oXQ0FAUFRXhzJkzmDhxIgBg2LBh2L17Nw4fPtzmebJm/f7ef//9GDNmjN33l5gPe5gPai3mqCXmiLyNuWyJuSQLfpLpAatXr0ZkZCQ+//xz6XfvvfceDh06hH79+mHmzJkoKipCdXU1ACAtLQ0HDx5EQEAA5syZg4EDB6KoqMitafXo0QODBw/G8OHDUV9fj08//RTPPPMM8vPzsXbtWmzevBn19fV45plnpOvHa2pqnI4zMTERn3/+OQIDAzF79mwMHDgQ33zzjctr+e3Zs2cPKisr8cQTT+CJJ56AXq9HY2Oj09ccPXoUPXv2xOjRo6XfzZo1C/fccw9KS0uRlpaG8PBwDBgwAAqFAtHR0TavNxgM6NWrFx566CFERkaisLAQ7777LnJzc5GamooLFy4gPDwcM2bMwH333dfqebLH+v195plnUFNTg4aGBo+Mu7thPn7GfFBbMUc/Y47IVzCXP2MuyR6vPya3K5SvP/q+K5ejL+O9deuW+Pjjj6Xhpk+f7vKLh71VnnhEuSfKFx/xzmpfMR+eK19fT329fV25mKOuX+zful8xl75bHlrvvT8jXaG4kenY+vjjj0Vtba1Yt26dmDBhgjh//rzIz8/32Y3K0qVLxbfffiuSk5PFp59+KkpLS0VDQ4PYsGGDV9vFTrh7FvPhmfL19dTX29fViznq2sX+rXsWc+mbxYPMrrewWd2kli5dKq5duyaampqEEEJUVVWJbdu2ieDgYK+2i50wyxeK+eie7WN1bvlqjrxV7N9YvlB3Si49sd7L/v0fckEIAZlM5u1mEDnlrfWU+aCuwNfXU19vH5E3sX8j6jyeWO/54B8iIiIiIiLyGB5kkte99NJLuHbtGn744QeEhYXhhx9+wJUrVzB79mxvN43I65gPovZjjoh8D3PZvfEgs4NoNBqYzWbodDqfaIcQAt99953N3w4ePAghBEwmE9RqNV555RVUVlYiPz9f+oLbzvDyyy/jrrvuwvbt21FaWoqvv/4acrkcCxcudPna4OBgbNu2DVVVVRBCoK6uDj/++CNUKlWr2nDgwAHcunUL//3f/93W2aBWYD7cx3yQI8yR+5gj6izMpfuYy+6NB5l3kKioKCl806dPx+DBg23+fuXKFZSUlODixYs4c+ZMp7RJpVJh1KhRuHz5srRBTk1NhcFgwKhRo1xuLBYvXoy5c+dCCIGTJ0/CaDQiICAABoOhVe0oLi5GSUkJzp8/3+Z5oa6N+XCM+SB3MUeOMUfkLcylY8xlx+FBpgckJCQgMzMTM2fO9HZTHDKZTOjfvz/GjBkDAIiJiUFwcDCKi4ulYXbu3IkHH3wQU6dORVVVVae0a8yYMejfvz9OnTqF/Px8AEB+fj7Onz8vtVepVCItLQ179+7FsGHDbF4/ePBgBAYGIicnB7/85S+lLyrOz8/HsGHDcOLECRgMBpcbK7VajYiICHz00UcdNq93Kuaj7ZgPsmCO2o45oo7CXLYdc9n98SDTA8LCwqBUKtG/f/8Wf4uIiEBFRQWEEKioqMDKlSsBANOmTcPp06dRX18PIQRqa2uxZ88eBAcHAwA2btyIGzduQAiBhoYG5OTkICoqCvHx8Th//jyamprQ1NQEg8GA+Ph4AIBer8eFCxewf//+FpdqXLp0CU1NTRg9ejQAIDY2FnV1dWhsbJSGUavVMJlM0Ov1AG5falFTU4MDBw5I83D16lX87//+r915mjRpEnJzc9HQ0ICmpiZcu3ZNuvzg5ZdfRn5+vtTuiooKrF+/HoMHD8Zdd91ls7EDbp9ZCggIwC9+8Qs88sgjiI2Nxfjx4zFy5Eib4c6dO4fa2lo8+uijSE1NxYQJEwAAY8eOxT//+U+MGDECgwYNQnp6OnQ6nTSP6enpOH36NGpra6HRaKDT6WA2m6HRaKRhDh06BKPRiKamJlRXV2Pz5s0Abl+isWfPHpjNZjQ0NODkyZO4ceOGtNzIFvPBfDAf7cccMUfMke9hLplL5tKxnt5uQFe2cuVKzJkzB3fffTeCg4Px1ltv4Xe/+x22bNkiDaNQKHDo0CH07t0bDz/8MF5++WV89tlnyMrKQm5uLg4cOIDjx4/jrbfewpQpU5CQkIAePXpgwYIFaGpqwr59+9CvXz+cPHkSoaGheOedd9CvXz+8++676NGjB15//XW89dZb+OmnnwDc3qgpFAqUlpbi0KFDUjuuX7+O3r1745FHHsHUqVMxZMgQFBUVITAwEAMGDHA4j35+foiJicGBAwcQHh4OpVKJuXPnIicnB3K5XPp5/fr1+K//+i888sgjOHXqFC5duoQnnngCixYtQkFBAZ599lkMHToUubm5KCgowODBg5Gfn48xY8agsbERFRUVNtMtKSlBQ0MDAgMDsWvXLtx1111oaGjAF198YTPc2rVrERkZiXnz5mHOnDmYPHkyPv74YyQnJyMvLw9Dhw5FbW0tvvnmG+Tl5UmvU6lUqKurw9mzZ3H06FHExsa2mPcxY8YgJycH+fn5ePzxx/Hcc8/hq6++wqOPPoqnnnoKdXV1yMzMhFKphFwuh9FobN0K1M0xH8wH89F+zBFzxBz5HuaSuWQuXeMnme0QEhKCyMhIhIWFwd/fHwqFAhEREejXr580TEFBAZ5++mls2LABN2/eRFBQEMLDw/Hss89i1KhRWLBgATZt2gSFQgE/Pz/07t0bMTExCAoKwldffYUZM2YgJiYGv/71r/HEE0/g3nvvRd++ffGnP/0JK1euRJ8+fTBw4EAMHToUAFBfX48///nPUCgUeOedd6R23Lp1C4WFhQgNDcWcOXMQEhKCnJwct+bz7NmzmDZtGlJTU3Hr1i0UFBRg2rRpWL9+Paqrq+Hn54ennnoKUVFRKC8vR2JiImbMmIGcnBz07t0bo0ePRnZ2Nurq6jBmzBg8+uijyMjIwKeffupwmj16/LxqVlVVYcuWLdi6davdYX/7299i+vTpyMjIQO/evfHqq69izJgxyMjIQH19PWpqarB582Z8+OGH0mvKysoQFxeHUaNGYefOnXbHW1paiuXLl2PVqlW4fPkygoKC0LdvXzz44IPw9/fH3r17MWvWLLz//vuorq52a1neSZgP5oP5aD/miDlijnwPc8lcMpeu8SCzHRYvXgy5XI5169ahoqICCQkJGDhwIFavXi0Nc/nyZbvXt7/xxhsYPnw4vvnmG4wbNw6nTp1ye7pFRUX4zW9+g3nz5mHevHl45ZVXpCeH1dXV4dixY3Zfd+TIEQQEBGDGjBloaGjA4cOH3ZpeWVmZzc9NTU2oqqqSLvVwx7vvvou4uDikp6cjJCQEf/zjH7F582Y0NjbCz8+vxaUm9957L3r27Im6ujqn433ooYcQHByMAwcO4LnnnkNBQQHuvvtuREdHO33d1atXHW5cLEwmE77//nuX89aa5XAnYT6YD4D5aC/miDkCmCNfw1wylwBz6QoPMj2grq4ON2/eRH19fatfK5fL8fbbb0OhUEi/s1yr//TTT2Pv3r3Izs5Gbm4uvvvuO1y+fBkKhQILFizA1KlT8f/+3//Ds88+69bTtA4ePIjKykr84he/QHFxMVJTU1vdXkfS0tJw/vx5hISEYM2aNdi7dy/GjRuHmzdv4scff0Rqaip+97vfobS0FD/++COEEBgwYACMRiMaGhps5h+4fZmJ2WzGpUuXoFKpkJ+fj2PHjknX3FusX78excXF+Omnn3D48GFERUWhqqoKR48elYbp27cvli5dipSUFI/Mq+X9mTFjBnbt2oXly5ejd+/eHhl3d8R8MB/MR/sxR8wRc+R7mEvmkrl0jAeZHrB69WpERkbi888/d/s1e/bsQWVlJZ544gk88cQT0Ov10k3Y77//Pnbs2AEhBKZPn44xY8ZINyInJSWhsLAQ48aNg1qtxpNPPmlz87YzX375JQwGA4QQOHHihEefIFZVVYU//OEPyMvLwwMPPICnnnoKZrMZWq0Wf/nLX9DY2IgJEyZArVYjJiYG586dQ0pKCnJzc3Hjxg0olUrpyWHDhg1DVFQUKioqcOTIEdx7770IDQ1FeHg4wsLCbKZbXFwMmUyG4cOHIzo6GlevXsXq1auxc+dO7Nq1C1lZWQgMDMSMGTPw4IMPemRe33//faSlpSEgIABPP/00evToAbPZ7JFxd0fMB/PBfLQfc8QcMUe+h7lkLplL5wTLdYnbn4ezOqC++uorUVVVJV599VUBQCQmJoqamhqxZ88eaRiVSiXGjh3r9bbaK41GI8xms9Dr9V5vi7fWU+aj44r58Fz5+nrq6+3rysUcdf1i/9b9irn03fLQeu/9GekKxY1Mx9VLL70krl27Jn744QcRFhYmcnNzxZUrV8Ts2bO93jZ7NXv2bJGZmSk+/fRTkZycLAoKCkRTU5P4v//7P6+3jZ1w9yvmw3Pl6+upr7evKxdz1PWL/Vv3K+bSd4sHmV1vYbO6Qc2ePVsYDAbR1NQkhBCitrZW7N+/XyiVSq+3jZ0wy9vFfHTf9rE6r3w5R94q9m8sb9edlEtPrPeyf/+HXBBCQCaTebsZRE55az1lPqgr8PX11NfbR+RN7N+IOo8n1ns++IeIiIiIiIg8hgeZd4iXXnoJ165dww8//ICwsDD88MMPuHC9dwkAAAnZSURBVHLlCmbPnu3tphF5HfNB1H7MEZHvYS7JW3iQeYd4+eWXcdddd2H79u0oLS3F119/DblcjoULF7p8bXBwMLZt24aqqioIIVBXV4cff/wRKpXK7ekPGzYMp06dQlVVFZYuXdqeWSHyOOaDqP2YIyLfw1ySt/Ag8w6gUqkwatQoXL58GTqdDgCQmpoKg8GAUaNGudxYLF68GHPnzoUQAidPnoTRaERAQIBbXwBsUVpaCqPRCIPBgAsXLrRrfog8ifkgaj/miMj3MJfkbV5/glFXKGdPWUpISBCZmZli5syZXm+nvVq2bJmoqakRu3fvtvn9/v37RU1NjVi2bJlQKpUiLS1N7N27VwwbNsxmOK1WK4QQQqfTtRj3sGHDxIkTJ4TBYBAqlcrr83qnly8+fY/5YD58pXz9KZHMEXPEclzs31pfzCWrreWJvPGTTA8ICwuDUqlE//79pd9pNBqYzWbk5eWhoqICTU1NMBqNiI+PBwBMnz4dx44dQ0NDA5qamnDt2jWsXLkSABAfHw+j0YimpiZUVFTgp59+gtlshkajwUMPPYSsrCzU1dVBCIH6+nocPHgQSqUSAKDX63HhwgXs378fZrMZOp0OgwcPxl133YXi4mKbdhcXFyMgIAC/+MUv8MgjjyA2Nhbjx4/HyJEjbYY7d+4camtr8eijjyI1NRUTJkwAAIwdOxb//Oc/MWLECAwaNAjp6enQ6XRQq9UwmUxIT0/H6dOnUVtbC41GA71eD5PJBLVaLQ1z6NAhaV6rq6uxefNmALcv0dizZw/MZjMaGhpw8uRJ3LhxA3q9vmPeROowzAfzQe3HHDFH5HuYS+aSHONBZjusXLkSx48fR1xcHIKDg/HWW2/hyJEjSEhIkIYZMWIEcnNzcerUKYSFhWHx4sUICwuDRqPBAw88gL/85S/43e9+B7PZjCVLluC1117DsmXLEBYWhlOnTiE3NxdDhgyRxnfixAkcPnwYX3zxBRISEnDy5ElMmDABr776qjRMREQEJk+ejLKyMhw6dAh+fn5obGxERUWFTftLSkrQ0NCAwMBA7Nq1C2+88QaWLl2KL774wma4tWvXIiUlBQAwZ84cpKWl4b333kNlZSXy8vJgNptx/fp17NixA//617+k16lUKkRERODs2bM4evSo3WU4ZswYXLx4EZmZmQgICMBzzz2HWbNm4e2338ZTTz0Fs9mMffv2ISgoCHK5vO1vFnU65oP5oPZjjpgj8j3MJXNJrvEgsx1CQkIQGRmJsLAw+Pv7Q6FQICIiAv369ZOGOXnyJKZNm4YPPvgAN2/eRGhoKF555RVERUUhMDAQS5Yswf/8z/8gLCwMvXv3xhNPPIGQkBCUl5cjMTER06ZNQ3Z2tjS+SZMmYcKECZgzZw42bdqEUaNGoUePHggMDJSGqa+vx5///GcoFAq88847Dtvfo8fPb39VVRW2bNmCrVu32h32t7/9LaZPn46MjAz07t0br776KsaMGYOMjAzU19ejpqYGmzdvxocffii9pqysDHFxcRg1ahR27txpd7ylpaVYvnw5Vq1ahcuXLyMoKAh9+/bFgw8+CH9/f+zduxezZs3C+++/j+rqatdvCvkM5oP5oPZjjpgj8j3MJXNJrvEgsx0WL14MuVyOdevWoaKiAgkJCRg4cCBWr17t1usrKiqwbNkyzJs3D/PmzUN8fDwOHTrUYrimpibp/2+88QYmTJiA48ePY8aMGUhPT28xfF1dHY4dOyb93NjYCD8/P5vLOQDg3nvvRc+ePVFXV+e0nQ899BCCg4Nx4MABPPfccygoKMDdd9+N6Ohop6+7evWqw42Lhclkwvfff+90GOD2hvP25eHUVTAfzAe1H3PEHJHvYS6ZS3KNB5keUFdXh5s3b6K+vr7F30aMGIHMzEwsX74cvXv3RllZGf7617/i/Pnz6NevH+bPn4+pU6di9uzZWLBgAb7++muUl5cjJCQEa9aswa5duzBu3LgW4w0MDMT8+fNbXD9vj9FoRENDAxQKhc3vFQoFzGYzLl26BJVKhfz8fBw7dky65t5i/fr1KC4uxk8//YTDhw8jKioKVVVVNpdA9O3bF0uXLpUuq2iv06dPo76+HjNmzMCuXbuk5UddD/PBfFD7MUfMEfke5pK5JMd4kOkBq1evRmRkJD7//PMWfysuLsYvf/lLKJVKFBcXY/369SgtLcUf/vAH5OXl4YEHHoBarcasWbPQo0cP5Ofn48MPP0RpaSmUSiUee+wxXLt2TRrf7t27UVJSglGjRmHWrFnIz893eSYqNzcXN27cgFKpxLBhwwDc/t6iqKgoVFRU4MiRI7j33nsRGhqK8PBwhIWFtZgHmUyG4cOHIzo6GlevXsXq1auxc+dO7Nq1C1lZWQgMDMSMGTPw4IMPemCJAu+//z7S0tIQEBCAp59+Gj169IDZbPbIuKlzMR/MB7Ufc8Qcke9hLplLcs7rj8ntCtXaR/lqNBphNpvtPva5taXX64XZbBYajabN4/jqq69EVVWVePXVVwUAkZiYKGpqasSePXukYVQqlRg7dqzXl7Wz5anX673eFl8uX3zEu7P3k/nwTDEf7lVX/goTZ+87c+SZYo58u9i/tW0czCWrLeWJvPUE+Zzk5GT069cP169fR//+/e1entBa27ZtQ0xMDOLi4rBz507MmTMHVVVV+OSTT6RhMjIyPNF8j5g9ezZef/11GAwGNDY2IiYmBv7+/jh79qy3m0ZexnwwH9R+zBFzRL6HuWQuuxuvHy13herMM1k7duwQdXV1QgghmpqahNFoFEuXLvX6MujMmj17tjAYDKKpqUkIIURtba3Yv3+/UCqVXm+bL9edcKaX+WA+2lr8JPPnYo6Yo65W7N/ujGIufaM8kTfZv/9DLgghIJPJvN0MIqe8tZ4yH9QV+Pp66uvtI/Im9m9EnccT6z0f/ENEREREREQew4NMIiIiIiIi8hgeZBIREREREZHH8CCTiIiIiIiIPIYHmUREREREROQxPMgkIiIiIiIij+FBJhEREREREXkMDzKJiIiIiIjIY3iQSURERERERB7Dg0wiIiIiIiLyGB5kEhERERERkcfwIJOIiIiIiIg8hgeZRERERERE5DE8yCQiIiIiIiKP6entBnQlQghvN4HIZzEfRO3HHBH5HuaSqPVkAJgcIiIiIiIi8gheLktEREREREQew4NMIiIiIiIi8hgeZBIREREREZHH8CCTiIiIiIiIPIYHmUREREREROQxPMgkIiIiIiIij+FBJhEREREREXkMDzKJiIiIiIjIY3iQSURERERERB7Dg0wiIiIiIiLyGB5kEhERERERkcfwIJOIiIiIiIg8hgeZRERERERE5DH/H0z6bZGyQg+wAAAAAElFTkSuQmCC;" vertex="1" parent="1">
          <mxGeometry x="7.75" y="-1080" width="824.51" height="470" as="geometry" />
        </mxCell>
        <mxCell id="QOd5lDTDU85s1vdmRcAn-68" value="mensaje = Triste" style="text;html=1;strokeColor=none;fillColor=none;align=center;verticalAlign=middle;whiteSpace=wrap;rounded=0;" vertex="1" parent="1">
          <mxGeometry x="280" y="270" width="130" height="30" as="geometry" />
        </mxCell>
        <mxCell id="QOd5lDTDU85s1vdmRcAn-69" value="" style="html=1;verticalAlign=bottom;endArrow=open;dashed=1;endSize=8;edgeStyle=elbowEdgeStyle;elbow=vertical;curved=0;rounded=0;" edge="1" parent="1">
          <mxGeometry x="0.5" relative="1" as="geometry">
            <mxPoint x="687.75" y="620.28" as="sourcePoint" />
            <mxPoint x="687.75" y="620.6206896551726" as="targetPoint" />
            <mxPoint as="offset" />
          </mxGeometry>
        </mxCell>
        <mxCell id="QOd5lDTDU85s1vdmRcAn-70" value="&lt;h3 style=&quot;&quot;&gt;Realizar un diagrama de secuencias para cuando el Tamagotchi está Triste y se le Da de tomar&lt;br&gt;&lt;/h3&gt;" style="text;html=1;strokeColor=none;fillColor=none;align=center;verticalAlign=middle;whiteSpace=wrap;rounded=0;" vertex="1" parent="1">
          <mxGeometry x="157.75" y="490" width="670" height="80" as="geometry" />
        </mxCell>
        <mxCell id="QOd5lDTDU85s1vdmRcAn-71" value="&lt;h1 style=&quot;font-size: 21px;&quot;&gt;&lt;span style=&quot;background-color: initial; font-size: 21px;&quot;&gt;ENUNCIADO:&amp;nbsp;&lt;/span&gt;&lt;br style=&quot;font-size: 21px;&quot;&gt;&lt;/h1&gt;" style="text;html=1;strokeColor=none;fillColor=none;align=center;verticalAlign=middle;whiteSpace=wrap;rounded=0;fontSize=21;fontStyle=1" vertex="1" parent="1">
          <mxGeometry x="7.75" y="490" width="160" height="70" as="geometry" />
        </mxCell>
        <mxCell id="QOd5lDTDU85s1vdmRcAn-72" value="&lt;i&gt;this&lt;/i&gt; : &lt;b&gt;Tamagotchi&lt;/b&gt;" style="shape=umlLifeline;perimeter=lifelinePerimeter;whiteSpace=wrap;html=1;container=0;dropTarget=0;collapsible=0;recursiveResize=0;outlineConnect=0;portConstraint=eastwest;newEdgeStyle={&quot;edgeStyle&quot;:&quot;elbowEdgeStyle&quot;,&quot;elbow&quot;:&quot;vertical&quot;,&quot;curved&quot;:0,&quot;rounded&quot;:0};" vertex="1" parent="1">
          <mxGeometry x="167.75" y="590" width="136" height="270" as="geometry" />
        </mxCell>
        <mxCell id="QOd5lDTDU85s1vdmRcAn-73" value="" style="html=1;points=[];perimeter=orthogonalPerimeter;outlineConnect=0;targetShapes=umlLifeline;portConstraint=eastwest;newEdgeStyle={&quot;edgeStyle&quot;:&quot;elbowEdgeStyle&quot;,&quot;elbow&quot;:&quot;vertical&quot;,&quot;curved&quot;:0,&quot;rounded&quot;:0};" vertex="1" parent="QOd5lDTDU85s1vdmRcAn-72">
          <mxGeometry x="63" y="70" width="10" height="40" as="geometry" />
        </mxCell>
        <mxCell id="QOd5lDTDU85s1vdmRcAn-74" value="&lt;i&gt;estado&lt;/i&gt;&amp;nbsp;: &lt;b&gt;EstadoTriste&lt;/b&gt;" style="shape=umlLifeline;perimeter=lifelinePerimeter;whiteSpace=wrap;html=1;container=0;dropTarget=0;collapsible=0;recursiveResize=0;outlineConnect=0;portConstraint=eastwest;newEdgeStyle={&quot;edgeStyle&quot;:&quot;elbowEdgeStyle&quot;,&quot;elbow&quot;:&quot;vertical&quot;,&quot;curved&quot;:0,&quot;rounded&quot;:0};" vertex="1" parent="1">
          <mxGeometry x="537.75" y="590" width="170" height="270" as="geometry" />
        </mxCell>
        <mxCell id="QOd5lDTDU85s1vdmRcAn-75" value="" style="html=1;points=[];perimeter=orthogonalPerimeter;outlineConnect=0;targetShapes=umlLifeline;portConstraint=eastwest;newEdgeStyle={&quot;edgeStyle&quot;:&quot;elbowEdgeStyle&quot;,&quot;elbow&quot;:&quot;vertical&quot;,&quot;curved&quot;:0,&quot;rounded&quot;:0};" vertex="1" parent="QOd5lDTDU85s1vdmRcAn-74">
          <mxGeometry x="80" y="140" width="10" height="50" as="geometry" />
        </mxCell>
        <mxCell id="QOd5lDTDU85s1vdmRcAn-76" value="&lt;b&gt;Estado&lt;/b&gt;" style="shape=umlLifeline;perimeter=lifelinePerimeter;whiteSpace=wrap;html=1;container=0;dropTarget=0;collapsible=0;recursiveResize=0;outlineConnect=0;portConstraint=eastwest;newEdgeStyle={&quot;edgeStyle&quot;:&quot;elbowEdgeStyle&quot;,&quot;elbow&quot;:&quot;vertical&quot;,&quot;curved&quot;:0,&quot;rounded&quot;:0};" vertex="1" parent="1">
          <mxGeometry x="367.75" y="590" width="120" height="270" as="geometry" />
        </mxCell>
        <mxCell id="QOd5lDTDU85s1vdmRcAn-77" value="" style="html=1;points=[];perimeter=orthogonalPerimeter;outlineConnect=0;targetShapes=umlLifeline;portConstraint=eastwest;newEdgeStyle={&quot;edgeStyle&quot;:&quot;elbowEdgeStyle&quot;,&quot;elbow&quot;:&quot;vertical&quot;,&quot;curved&quot;:0,&quot;rounded&quot;:0};" vertex="1" parent="QOd5lDTDU85s1vdmRcAn-76">
          <mxGeometry x="55" y="100" width="10" height="60" as="geometry" />
        </mxCell>
        <mxCell id="QOd5lDTDU85s1vdmRcAn-78" value="2:&lt;br&gt;&amp;nbsp;+darDeTomar()" style="html=1;verticalAlign=bottom;endArrow=block;edgeStyle=elbowEdgeStyle;elbow=horizontal;curved=0;rounded=0;entryX=0.494;entryY=0.389;entryDx=0;entryDy=0;entryPerimeter=0;" edge="1" parent="1">
          <mxGeometry x="0.0594" relative="1" as="geometry">
            <mxPoint x="240.75" y="695" as="sourcePoint" />
            <Array as="points" />
            <mxPoint x="420.03" y="695.03" as="targetPoint" />
            <mxPoint as="offset" />
          </mxGeometry>
        </mxCell>
        <mxCell id="QOd5lDTDU85s1vdmRcAn-79" value="3:&lt;br&gt;+darDeTomar()" style="html=1;verticalAlign=bottom;endArrow=block;edgeStyle=elbowEdgeStyle;elbow=vertical;curved=0;rounded=0;" edge="1" parent="1" target="QOd5lDTDU85s1vdmRcAn-74">
          <mxGeometry x="0.0004" width="80" relative="1" as="geometry">
            <mxPoint x="432.650344827586" y="740.0034482758621" as="sourcePoint" />
            <mxPoint x="592.75" y="740" as="targetPoint" />
            <mxPoint as="offset" />
          </mxGeometry>
        </mxCell>
        <mxCell id="QOd5lDTDU85s1vdmRcAn-80" value="1:&lt;br&gt;+darDeTomar()" style="html=1;verticalAlign=bottom;startArrow=oval;startFill=1;endArrow=block;startSize=8;edgeStyle=elbowEdgeStyle;elbow=vertical;curved=0;rounded=0;" edge="1" parent="1">
          <mxGeometry width="60" relative="1" as="geometry">
            <mxPoint x="97.75" y="670.2758620689656" as="sourcePoint" />
            <mxPoint x="227.75" y="670.31" as="targetPoint" />
          </mxGeometry>
        </mxCell>
        <mxCell id="QOd5lDTDU85s1vdmRcAn-81" value="" style="html=1;verticalAlign=bottom;endArrow=open;dashed=1;endSize=8;edgeStyle=elbowEdgeStyle;elbow=vertical;curved=0;rounded=0;" edge="1" parent="1" source="QOd5lDTDU85s1vdmRcAn-75">
          <mxGeometry x="-0.0028" relative="1" as="geometry">
            <mxPoint x="590.25" y="770.18" as="sourcePoint" />
            <mxPoint x="247.75" y="770" as="targetPoint" />
            <mxPoint as="offset" />
            <Array as="points" />
          </mxGeometry>
        </mxCell>
        <mxCell id="QOd5lDTDU85s1vdmRcAn-82" value="" style="html=1;points=[];perimeter=orthogonalPerimeter;outlineConnect=0;targetShapes=umlLifeline;portConstraint=eastwest;newEdgeStyle={&quot;edgeStyle&quot;:&quot;elbowEdgeStyle&quot;,&quot;elbow&quot;:&quot;vertical&quot;,&quot;curved&quot;:0,&quot;rounded&quot;:0};" vertex="1" parent="1">
          <mxGeometry x="230.75" y="760" width="10" height="50" as="geometry" />
        </mxCell>
        <mxCell id="QOd5lDTDU85s1vdmRcAn-83" value="" style="html=1;verticalAlign=bottom;endArrow=open;dashed=1;endSize=8;edgeStyle=elbowEdgeStyle;elbow=horizontal;curved=0;rounded=0;" edge="1" parent="1">
          <mxGeometry x="-0.0028" relative="1" as="geometry">
            <mxPoint x="230.75" y="800.07" as="sourcePoint" />
            <mxPoint x="97.75" y="800" as="targetPoint" />
            <mxPoint as="offset" />
            <Array as="points" />
          </mxGeometry>
        </mxCell>
        <mxCell id="QOd5lDTDU85s1vdmRcAn-84" value="&lt;i style=&quot;font-size: 11px;&quot;&gt;devuelve el mensaje&lt;br&gt;por pantalla&lt;/i&gt;" style="text;html=1;strokeColor=none;fillColor=none;align=center;verticalAlign=middle;whiteSpace=wrap;rounded=0;" vertex="1" parent="1">
          <mxGeometry x="110.75" y="770" width="110" height="30" as="geometry" />
        </mxCell>
        <mxCell id="QOd5lDTDU85s1vdmRcAn-85" value="mensaje = Feliz" style="text;html=1;strokeColor=none;fillColor=none;align=center;verticalAlign=middle;whiteSpace=wrap;rounded=0;" vertex="1" parent="1">
          <mxGeometry x="272.75" y="740" width="130" height="30" as="geometry" />
        </mxCell>
      </root>
    </mxGraphModel>
  </diagram>
</mxfile>
